<?xml version="1.0" encoding="UTF-8"?><svg id="uuid-a3c0bf30-dfbc-487e-8a62-23bf17ddde3d" xmlns="http://www.w3.org/2000/svg" viewBox="0 0 512 512"><path d="M236.02,178.85c5.92-1.52,12.12-2.33,18.51-2.33,5.1,0,10.08,.52,14.89,1.5,13.02,5.97,22.03,19.09,22.08,34.43,.07,20.89-16.78,37.78-37.87,37.96-20.81,.18-37.88-16.82-37.99-37.82-.07-14.67,8.2-27.4,20.37-33.74Zm18.51,145.9c27.57,0,51.62-15.05,64.39-37.38-1.08-7.12-3.03-14.01-6.54-20.45-4.86-8.92-12.08-14.52-22.29-16.02-3.74-.55-7.21-.25-10.36,2.11-1.72,1.29-3.58,2.38-5.41,3.51-13.16,8.15-26.33,8.16-39.5,.03-2.26-1.4-4.43-2.97-6.76-4.24-1.45-.79-3.12-1.59-4.7-1.62-5.03-.1-9.84,1.04-14.32,3.44-7.27,3.89-11.6,10.25-14.59,17.6-2.06,5.09-3.47,10.29-4.35,15.58,12.76,22.37,36.83,37.45,64.42,37.45Zm0-165.79c-3.63,0-7.21,.22-10.73,.63v-41.78c-27.22-5.45-47.79-29.53-47.79-58.33C196.02,26.69,222.71,0,255.51,0s59.49,26.69,59.49,59.49c0,30.16-22.56,55.13-51.69,58.96v40.93c-2.89-.27-5.82-.42-8.78-.42Zm.98-59.49c22.08,0,39.98-17.9,39.98-39.98s-17.9-39.98-39.98-39.98-39.98,17.9-39.98,39.98,17.9,39.98,39.98,39.98Zm-75.5,97.78l-30.34-30.34c-23.1,15.39-54.67,12.91-75.03-7.45-23.19-23.19-23.19-60.94,0-84.13,23.19-23.2,60.94-23.2,84.13,0,21.32,21.32,23.03,54.93,5.14,78.24l29.11,29.11c-4.83,4.38-9.2,9.27-13.01,14.58Zm-35.04-108.13c-15.62-15.62-40.93-15.62-56.55,0-15.61,15.62-15.62,40.93,0,56.55,15.62,15.61,40.93,15.61,56.55,0,15.62-15.62,15.61-40.93,0-56.55Zm17.89,161.52c0,6,.58,11.87,1.69,17.55h-46.73c-5.45,27.22-29.53,47.79-58.33,47.79-32.8,0-59.49-26.69-59.49-59.49s26.69-59.49,59.49-59.49c30.16,0,55.13,22.56,58.96,51.69h44.44c-.01,.65-.02,1.3-.02,1.95Zm-63.39,5.85c0-22.08-17.9-39.98-39.98-39.98s-39.98,17.9-39.98,39.98,17.9,39.98,39.98,39.98,39.98-17.9,39.98-39.98Zm103.4,69.88l-35.96,35.96c15.39,23.1,12.91,54.67-7.45,75.03-23.19,23.19-60.94,23.19-84.13,0-23.2-23.19-23.2-60.94,0-84.13,21.32-21.32,54.93-23.03,78.24-5.14l34.42-34.42c4.49,4.74,9.48,9,14.89,12.69Zm-57.21,40.66c-15.62-15.62-40.93-15.61-56.55,0-15.62,15.62-15.62,40.93,0,56.55,15.61,15.62,40.93,15.62,56.55,0,15.61-15.61,15.61-40.93,0-56.55Zm108.87-24.72c4.64,0,9.2-.35,13.65-1.01v52.89c27.22,5.45,47.79,29.53,47.79,58.33,0,32.8-26.69,59.49-59.49,59.49s-59.49-26.69-59.49-59.49c0-30.16,22.56-55.13,51.69-58.96v-51.43c1.94,.12,3.89,.19,5.85,.19Zm1.95,70.22c-22.08,0-39.98,17.9-39.98,39.98s17.9,39.98,39.98,39.98,39.98-17.9,39.98-39.98-17.9-39.98-39.98-39.98Zm69.2-104.08l36.65,36.65c23.1-15.39,54.67-12.91,75.03,7.45,23.19,23.19,23.19,60.94,0,84.13-23.19,23.19-60.94,23.19-84.13,0-21.32-21.32-23.03-54.93-5.14-78.24l-36.25-36.25c5.09-4.08,9.73-8.69,13.84-13.74Zm41.34,114.44c15.62,15.62,40.93,15.62,56.55,0,15.61-15.61,15.62-40.93,0-56.55-15.62-15.62-40.93-15.62-56.55,0s-15.61,40.93,0,56.55Zm-20.82-172.25c0-2.3-.09-4.57-.25-6.83h48.23c5.45-27.22,29.53-47.79,58.33-47.79,32.8,0,59.49,26.69,59.49,59.49s-26.69,59.49-59.49,59.49c-30.16,0-55.13-22.56-58.96-51.69h-48.22c.57-4.14,.88-8.38,.88-12.68Zm66.32,4.88c0,22.08,17.9,39.98,39.98,39.98s39.98-17.9,39.98-39.98-17.9-39.98-39.98-39.98-39.98,17.9-39.98,39.98Zm-98.59-74.69l31.15-31.15c-15.39-23.1-12.91-54.67,7.45-75.03,23.19-23.2,60.94-23.19,84.13,0s23.19,60.94,0,84.13c-21.32,21.32-54.93,23.03-78.24,5.14l-31.06,31.06c-3.97-5.18-8.47-9.93-13.43-14.15Zm52.4-35.84c15.62,15.62,40.93,15.61,56.55,0s15.62-40.93,0-56.55c-15.61-15.61-40.93-15.62-56.55,0-15.61,15.61-15.61,40.93,0,56.55Z" style="fill:#a41e23;"/></svg>