<svg xmlns="http://www.w3.org/2000/svg" viewBox="0 0 210 68"><defs><style>.cls-1{fill:#0dacec}.cls-4{fill:#fff}</style></defs><g id="French"><path id="BG" class="cls-1" d="M11.62 10.46C5.86 15.5 4.84 28.94 5 35c-.18 7.14.9 21 7.5 25.2a22.9 22.9 0 004.76 2.24c6.21 2.15 66 2.47 70.29 2.56 6 0 66.59 0 75.59-4.5 6.3-4.5 7.5-13.2 7.8-25.5.06-12.24-.9-20.64-7.2-25.44-5-3.84-70.85-4.68-76.19-4.5-5.46-.3-70.19.36-75.95 5.4"/><path id="BG-2" data-name="BG" class="cls-1" d="M42.62 10.46C36.86 15.5 35.84 28.94 36 35c-.18 7.14.9 21 7.5 25.2a22.9 22.9 0 004.76 2.24c6.21 2.15 66 2.47 70.29 2.56 6 0 66.59 0 75.59-4.5 6.3-4.5 7.5-13.2 7.8-25.5.06-12.24-.9-20.64-7.2-25.44-5-3.84-70.85-4.68-76.19-4.5-5.46-.3-70.19.36-75.95 5.4"/><text id="German-2" data-name="German" transform="translate(56.96 39.97)" fill="#fff" font-size="16" font-family="NotoSans-Bold,Noto Sans" font-weight="700" letter-spacing=".01em">Parl<tspan x="32.18" y="0" letter-spacing="0">e</tspan><tspan x="41.63" y="0">z-avec nous</tspan></text><path id="Icon_1" data-name="Icon 1" class="cls-4" d="M45.36 19.52a.67.67 0 01.43.16.64.64 0 01.21.47v18.49a.64.64 0 01-.21.47.62.62 0 01-.43.16h-.06l-15.2-1.6-1.5-.15-.6 1.39a7.77 7.77 0 01-3.24 3.75 11.83 11.83 0 00.81-3.48l.17-2-1.92-.18-5.26-.55a.62.62 0 01-.56-.63V23a.64.64 0 01.56-.63l26.74-2.85h.06m0-2h-.27l-26.74 2.82A2.63 2.63 0 0016 23v12.83a2.63 2.63 0 002.35 2.62l5.26.55a8.11 8.11 0 01-3.28 6.19.48.48 0 00-.16.56.5.5 0 00.45.31h.05c4.35-.5 7.77-2.81 9.22-6.4l15.2 1.6h.27a2.59 2.59 0 001.76-.67 2.62 2.62 0 00.88-2V20.15a2.64 2.64 0 00-2.64-2.63zM24.19 28a1.5 1.5 0 101.5 1.5 1.5 1.5 0 00-1.5-1.5zm7.06 0a1.5 1.5 0 101.5 1.5 1.5 1.5 0 00-1.5-1.5zm7 0a1.5 1.5 0 101.5 1.5A1.5 1.5 0 0038.3 28z"/><path class="cls-1" d="M194.76 9.56c-5-3.84-70.85-4.68-76.19-4.5-1.65-.09-8.65-.09-17.8.08C93.9 5 88.88 5 87.57 5.06c-5.46-.3-70.19.36-75.95 5.4S4.84 28.94 5 35c-.18 7.14.9 21 7.5 25.2a22.9 22.9 0 004.76 2.24c6.21 2.15 66 2.47 70.29 2.56 1.89 0 9.24 0 18.69-.14l12.31.14c6 0 66.59 0 75.59-4.5 6.3-4.5 7.5-13.2 7.8-25.5.06-12.24-.88-20.64-7.18-25.44z"/><path class="cls-4" d="M66.29 32.11a3.48 3.48 0 01-1.15 2.82 4.94 4.94 0 01-3.28 1h-1V40H58.4V28.55h3.65a4.9 4.9 0 013.16.89 3.28 3.28 0 011.08 2.67zm-5.47 1.81h.8a2.62 2.62 0 001.67-.44 1.53 1.53 0 00.55-1.28 1.58 1.58 0 00-.46-1.26 2.19 2.19 0 00-1.46-.41h-1.1zm13.07 6l-.47-1.19h-.06a3.36 3.36 0 01-1.24 1 3.88 3.88 0 01-1.66.3 2.68 2.68 0 01-2-.72 2.77 2.77 0 01-.72-2 2.29 2.29 0 011-2 5.69 5.69 0 012.94-.73h1.51v-.38a1.19 1.19 0 00-1.36-1.33 6.06 6.06 0 00-2.46.64l-.79-1.61a7.08 7.08 0 013.35-.79 4.15 4.15 0 012.69.76 2.82 2.82 0 01.94 2.33V40zm-.71-4h-.92a3 3 0 00-1.55.37 1.17 1.17 0 00-.5 1.05c0 .67.38 1 1.15 1a1.83 1.83 0 001.33-.47 1.68 1.68 0 00.49-1.27zM83 31.07a4.32 4.32 0 01.8.07l-.18 2.24a2.75 2.75 0 00-.7-.08 2.54 2.54 0 00-1.78.58 2.16 2.16 0 00-.63 1.65V40h-2.43v-8.76h1.81l.35 1.47h.12a3.28 3.28 0 011.09-1.19 2.72 2.72 0 011.55-.45zM87.81 40h-2.38V27.81h2.38zm6.53.16A4.49 4.49 0 0191.05 39a4.39 4.39 0 01-1.19-3.29 4.86 4.86 0 011.1-3.4 3.9 3.9 0 013-1.2 3.84 3.84 0 012.89 1.06 4 4 0 011 2.91v1.12h-5.58a2.29 2.29 0 00.61 1.58 2.1 2.1 0 001.57.57 6.57 6.57 0 001.5-.16 7.58 7.58 0 001.46-.52v1.84a5.36 5.36 0 01-1.33.46 7.81 7.81 0 01-1.74.16zM94 32.77a1.52 1.52 0 00-1.19.48 2.24 2.24 0 00-.49 1.36h3.34a2 2 0 00-.46-1.36 1.57 1.57 0 00-1.2-.48zM105.92 40H99v-1.44l4-5.5h-3.8v-1.82h6.51v1.54l-3.93 5.37h4.07zm1.39-3.78v-1.98h4.19v1.95zm11.9 3.78l-.46-1.19h-.06a3.53 3.53 0 01-1.24 1 3.94 3.94 0 01-1.66.3 2.68 2.68 0 01-2-.72 2.77 2.77 0 01-.73-2 2.3 2.3 0 011-2 5.62 5.62 0 012.93-.73h1.52v-.38a1.19 1.19 0 00-1.36-1.33 6.06 6.06 0 00-2.46.64l-.79-1.61a7 7 0 013.34-.79 4.19 4.19 0 012.7.76 2.85 2.85 0 01.93 2.33V40zm-.7-4h-.93a2.92 2.92 0 00-1.54.37 1.18 1.18 0 00-.51 1.05c0 .67.38 1 1.16 1a1.81 1.81 0 001.32-.47 1.69 1.69 0 00.5-1.27zm7 4l-3.32-8.73h2.49l1.69 5a8 8 0 01.33 1.79h.06a6.86 6.86 0 01.36-1.79l1.68-5h2.49L127.93 40zm11.06.16a4.51 4.51 0 01-3.3-1.17 4.39 4.39 0 01-1.18-3.29 4.86 4.86 0 011.09-3.4 3.93 3.93 0 013-1.2 3.83 3.83 0 012.88 1.06 4 4 0 011 2.91v1.13h-5.63a2.33 2.33 0 00.6 1.58 2.13 2.13 0 001.58.57 6.48 6.48 0 001.49-.16 7.43 7.43 0 001.47-.52v1.84a5.51 5.51 0 01-1.33.46 7.93 7.93 0 01-1.7.16zm-.34-7.36a1.49 1.49 0 00-1.18.48 2.18 2.18 0 00-.49 1.36h3.34a2 2 0 00-.46-1.36 1.57 1.57 0 00-1.24-.51zm9.47 7.36c-2.72 0-4.08-1.5-4.08-4.48a4.77 4.77 0 011.11-3.4 4.14 4.14 0 013.18-1.18 6 6 0 012.72.6l-.71 1.84c-.37-.15-.72-.27-1-.37a3.32 3.32 0 00-1-.15Q144 33 144 35.63c0 1.71.62 2.57 1.86 2.57a4 4 0 001.27-.19 4.5 4.5 0 001.17-.57v2a4.07 4.07 0 01-1.16.51 6.85 6.85 0 01-1.47.18zm17.03-.16h-2.39v-5.1a2.5 2.5 0 00-.33-1.42 1.24 1.24 0 00-1.07-.47 1.61 1.61 0 00-1.45.67 4.19 4.19 0 00-.44 2.21V40h-2.39v-8.76h1.82l.32 1.11h.14a2.43 2.43 0 011.1-1 3.63 3.63 0 011.58-.33 3.07 3.07 0 012.32.83 3.33 3.33 0 01.79 2.38zm10.47-4.38a4.68 4.68 0 01-1.13 3.33 4 4 0 01-3.13 1.21 4.46 4.46 0 01-2.22-.55 3.74 3.74 0 01-1.48-1.61 5.34 5.34 0 01-.51-2.4 4.64 4.64 0 011.12-3.33 4.1 4.1 0 013.15-1.2 4.32 4.32 0 012.21.55 3.57 3.57 0 011.48 1.57 5.18 5.18 0 01.51 2.4zm-6 0a3.71 3.71 0 00.42 2 1.54 1.54 0 001.39.66 1.49 1.49 0 001.37-.66 3.68 3.68 0 00.42-2 3.64 3.64 0 00-.42-2 1.79 1.79 0 00-2.76 0 3.62 3.62 0 00-.46 1.97zM181.43 40l-.32-1.12H181a2.51 2.51 0 01-1.09.94 3.58 3.58 0 01-1.6.34 3 3 0 01-2.31-.86 3.32 3.32 0 01-.78-2.37v-5.69h2.38v5.1a2.42 2.42 0 00.34 1.42 1.23 1.23 0 001.07.47 1.58 1.58 0 001.44-.67 4.08 4.08 0 00.45-2.21v-4.11h2.38V40zm10.51-2.59a2.4 2.4 0 01-.94 2 4.59 4.59 0 01-2.79.71 9.35 9.35 0 01-1.63-.13 6.26 6.26 0 01-1.25-.38v-2a8.12 8.12 0 001.49.52 6.17 6.17 0 001.47.21q1.29 0 1.29-.75a.59.59 0 00-.17-.45 2.35 2.35 0 00-.59-.4c-.28-.15-.66-.32-1.13-.52a7.17 7.17 0 01-1.48-.78 2.21 2.21 0 01-.68-.83 2.61 2.61 0 01-.22-1.14 2.07 2.07 0 01.9-1.8 4.36 4.36 0 012.56-.64 7.23 7.23 0 013.07.69l-.72 1.72a11.83 11.83 0 00-1.22-.44 3.86 3.86 0 00-1.17-.18q-1 0-1 .57a.65.65 0 00.27.61 8.63 8.63 0 001.49.7 6.76 6.76 0 011.5.77 2.38 2.38 0 01.7.83 2.54 2.54 0 01.25 1.08zM45.36 19.52a.67.67 0 01.43.16.64.64 0 01.21.47v18.49a.64.64 0 01-.21.47.62.62 0 01-.43.16h-.06l-15.2-1.6-1.5-.15-.6 1.39a7.77 7.77 0 01-3.24 3.75 11.83 11.83 0 00.81-3.48l.17-2-1.92-.18-5.26-.55a.62.62 0 01-.56-.63V23a.64.64 0 01.56-.63l26.74-2.85h.06m0-2h-.27l-26.74 2.82A2.63 2.63 0 0016 23v12.83a2.63 2.63 0 002.35 2.62l5.26.55a8.11 8.11 0 01-3.28 6.19.48.48 0 00-.16.56.5.5 0 00.45.31h.05c4.35-.5 7.77-2.81 9.22-6.4l15.2 1.6h.27a2.59 2.59 0 001.76-.67 2.62 2.62 0 00.88-2V20.15a2.64 2.64 0 00-2.64-2.63zM24.19 28a1.5 1.5 0 101.5 1.5 1.5 1.5 0 00-1.5-1.5zm7.06 0a1.5 1.5 0 101.5 1.5 1.5 1.5 0 00-1.5-1.5zm7 0a1.5 1.5 0 101.5 1.5A1.5 1.5 0 0038.3 28z"/></g></svg>