<?xml version="1.0" encoding="UTF-8"?><svg xmlns="http://www.w3.org/2000/svg" viewBox="0 0 68 68"><g id="a"/><g id="b"/><g id="c"/><g id="d"/><g id="e"/><g id="f"/><g id="g"/><g id="h"><g><path id="i" d="M6.39,8.25c-2.08,5.04-2.45,18.48-2.39,24.54-.07,7.14,.33,21,2.71,25.2,.52,.91,1.1,1.64,1.72,2.24,2.25,2.15,23.86,2.47,25.41,2.56,2.17,0,24.08,0,27.33-4.5,2.28-4.5,2.71-13.2,2.82-25.5,.02-12.24-.33-20.64-2.6-25.44-1.8-3.84-25.62-4.68-27.55-4.5-1.97-.3-25.37,.36-27.46,5.4" style="fill:#0dacec;"/><path d="M47.37,20.52c.16,0,.31,.06,.42,.16,.13,.12,.21,.29,.21,.47v18.49c0,.18-.08,.35-.21,.47-.12,.1-.27,.16-.42,.16-.02,0-.04,0-.07,0l-15.2-1.6-1.5-.16-.57,1.4c-.64,1.57-1.76,2.85-3.25,3.75,.44-1.05,.71-2.21,.82-3.48l.17-1.96-1.95-.21-5.26-.55c-.32-.03-.57-.3-.57-.63v-12.87c0-.32,.24-.59,.57-.63l26.74-2.81s.04,0,.07,0m0-2c-.09,0-.18,0-.28,.01-6.28,.66-20.99,2.21-26.74,2.81-1.34,.14-2.36,1.27-2.36,2.62v12.87c0,1.35,1.02,2.48,2.36,2.62l5.26,.55c-.25,2.88-1.41,4.77-3.28,6.19-.17,.13-.24,.36-.16,.56,.07,.19,.25,.31,.45,.31,.02,0,.03,0,.05,0,4.35-.5,7.77-2.81,9.22-6.4l15.2,1.6c.09,0,.18,.01,.27,.01,.65,0,1.28-.24,1.76-.68,.55-.5,.87-1.21,.87-1.96V21.15c0-.75-.32-1.46-.87-1.96-.49-.44-1.11-.68-1.76-.68h0Zm-21.18,10.48c-.83,0-1.5,.67-1.5,1.5s.67,1.5,1.5,1.5,1.5-.67,1.5-1.5-.67-1.5-1.5-1.5Zm7.06,0c-.83,0-1.5,.67-1.5,1.5s.67,1.5,1.5,1.5,1.5-.67,1.5-1.5-.67-1.5-1.5-1.5Zm7.06,0c-.83,0-1.5,.67-1.5,1.5s.67,1.5,1.5,1.5,1.5-.67,1.5-1.5-.67-1.5-1.5-1.5Z" style="fill:#fff;"/></g></g><g id="j"><g id="k"/></g></svg>