<svg xmlns="http://www.w3.org/2000/svg" viewBox="0 0 173 68"><path d="M10.55 8.25c-5.76 5-6.78 18.48-6.6 24.54-.18 7.14.9 21 7.5 25.2a23.15 23.15 0 004.76 2.24c6.22 2.15 66 2.47 70.29 2.56 6 0 66.59 0 75.59-4.5 6.3-4.5 7.5-13.2 7.8-25.5.06-12.24-.9-20.64-7.2-25.44-5-3.84-70.85-4.68-76.19-4.5-5.46-.3-70.19.36-75.95 5.4" fill="#0dacec"/><path d="M62.19 28.19a2.45 2.45 0 00-2.12 1 4.77 4.77 0 00-.75 2.86c0 2.55 1 3.82 2.87 3.82a9.07 9.07 0 002.91-.6v2a8.1 8.1 0 01-3.14.59 4.81 4.81 0 01-3.81-1.51 6.42 6.42 0 01-1.32-4.34 7.17 7.17 0 01.64-3.13 4.77 4.77 0 011.87-2.05 5.49 5.49 0 012.85-.72 7.66 7.66 0 013.34.81l-.78 2c-.43-.2-.86-.38-1.29-.53a3.88 3.88 0 00-1.27-.2zm13.29 9.57H73.1v-5.1c0-1.26-.47-1.89-1.4-1.89a1.61 1.61 0 00-1.45.68 4.11 4.11 0 00-.45 2.2v4.11h-2.38V25.6h2.38v4.54h.12a2.77 2.77 0 012.53-1.28 3.11 3.11 0 012.34.83 3.29 3.29 0 01.79 2.38zm8.08 0l-.46-1.19H83a3.36 3.36 0 01-1.24 1 3.88 3.88 0 01-1.66.3 2.68 2.68 0 01-2-.72 2.77 2.77 0 01-.72-2.05 2.29 2.29 0 011-2 5.69 5.69 0 012.94-.73h1.51v-.38a1.19 1.19 0 00-1.36-1.33 6.06 6.06 0 00-2.46.64l-.79-1.61a7.08 7.08 0 013.35-.79 4.15 4.15 0 012.69.76 2.82 2.82 0 01.94 2.33v5.82zm-.7-4h-.92a3 3 0 00-1.55.37 1.18 1.18 0 00-.51 1.05c0 .67.39 1 1.16 1a1.85 1.85 0 001.33-.47 1.68 1.68 0 00.49-1.27zM91.44 36a5.19 5.19 0 001.5-.27v1.77a5.42 5.42 0 01-2.19.4 2.66 2.66 0 01-2.08-.73A3.15 3.15 0 0188 35v-4.18h-1.12v-1l1.31-.8.69-1.84h1.52V29h2.45v1.79H90.4V35a.93.93 0 00.29.75 1.13 1.13 0 00.75.25zm14.76 1.74l-.67-3-.89-3.86h-.07L103 37.76h-2.57L97.93 29h2.37l1 3.86c.12.46.28 1.42.48 2.87h.06a16.16 16.16 0 01.27-1.88l.13-.67 1.09-4.18H106l1 4.18c.06.29.14.71.23 1.27a10.76 10.76 0 01.15 1.28h.06c.06-.46.14-1 .24-1.58s.2-1 .27-1.29L109 29h2.33l-2.51 8.73zm6.5-11q0-1.17 1.29-1.17c.87 0 1.3.39 1.3 1.17a1.14 1.14 0 01-.32.86 1.36 1.36 0 01-1 .31q-1.27.03-1.27-1.14zm2.48 11h-2.38V29h2.38zm6.26-1.74a5.19 5.19 0 001.5-.27v1.77a5.42 5.42 0 01-2.19.4 2.66 2.66 0 01-2.08-.73A3.15 3.15 0 01118 35v-4.18h-1.14v-1l1.31-.8.69-1.84h1.52V29h2.45v1.79h-2.43V35a.93.93 0 00.29.75 1.13 1.13 0 00.75.25zm11.41 1.74h-2.38v-5.1q0-1.89-1.41-1.89a1.61 1.61 0 00-1.45.68 4.22 4.22 0 00-.44 2.2v4.11h-2.38V25.6h2.38v2.48c0 .19 0 .65-.06 1.36v.7h.12a2.79 2.79 0 012.54-1.28 3.1 3.1 0 012.33.83 3.29 3.29 0 01.8 2.38zm13 0l-.32-1.12h-.13a2.54 2.54 0 01-1.09 1 3.69 3.69 0 01-1.6.33 3.06 3.06 0 01-2.32-.83 3.32 3.32 0 01-.78-2.37V29H142v5.1a2.5 2.5 0 00.34 1.42 1.23 1.23 0 001.07.47 1.61 1.61 0 001.45-.67 4.19 4.19 0 00.44-2.21V29h2.38v8.73zm10.5-2.59a2.37 2.37 0 01-.94 2 4.59 4.59 0 01-2.79.71 9.23 9.23 0 01-1.62-.13 6.16 6.16 0 01-1.26-.38v-2a8.12 8.12 0 001.49.52 6.17 6.17 0 001.47.21c.86 0 1.3-.25 1.3-.75a.61.61 0 00-.18-.45 2.35 2.35 0 00-.59-.4c-.28-.15-.66-.32-1.12-.52a7 7 0 01-1.49-.78 2.21 2.21 0 01-.68-.83 2.61 2.61 0 01-.22-1.14 2.07 2.07 0 01.9-1.8 4.46 4.46 0 012.56-.64 7.2 7.2 0 013.07.69l-.71 1.72a12.88 12.88 0 00-1.23-.46 3.86 3.86 0 00-1.17-.18q-1 0-1 .57a.65.65 0 00.34.55 9 9 0 001.49.7 6.76 6.76 0 011.5.77 2.27 2.27 0 01.7.83 2.57 2.57 0 01.14 1.21zM45.47 20.52a.63.63 0 01.42.16.64.64 0 01.21.47v18.49a.64.64 0 01-.21.47.58.58 0 01-.42.16h-.07l-15.2-1.6-1.5-.15-.56 1.39a7.79 7.79 0 01-3.25 3.75 11.52 11.52 0 00.82-3.48l.17-2-2-.21-5.25-.55a.62.62 0 01-.57-.63V24a.64.64 0 01.57-.63l26.77-2.85h.07m0-2h-.28l-26.73 2.82A2.63 2.63 0 0016.1 24v12.83a2.63 2.63 0 002.36 2.62l5.26.55a8.11 8.11 0 01-3.28 6.19.48.48 0 00-.16.56.48.48 0 00.45.31c4.36-.5 7.77-2.81 9.22-6.4l15.2 1.6h.28a2.61 2.61 0 001.76-.67 2.65 2.65 0 00.87-2V21.15a2.62 2.62 0 00-2.63-2.63zM24.29 29a1.5 1.5 0 101.5 1.5 1.5 1.5 0 00-1.5-1.5zm7.06 0a1.5 1.5 0 101.5 1.5 1.5 1.5 0 00-1.5-1.5zm7.06 0a1.5 1.5 0 101.5 1.5 1.5 1.5 0 00-1.5-1.5z" fill="#fff"/></svg>