<svg id="a5259d1d-5f7d-4fa8-8da1-93c804b09e10" data-name="Layer 1" xmlns="http://www.w3.org/2000/svg" viewBox="0 0 176 124"><defs><style>.\39 f40e62b-10b1-41ab-a731-738ccd9bfe02{fill:#4d4d4d;}</style></defs><title>YouTube_Icon</title><path class="9f40e62b-10b1-41ab-a731-738ccd9bfe02" d="M180.32,53.36A22.12,22.12,0,0,0,164.76,37.7C151,34,96,34,96,34s-55,0-68.76,3.7A22.12,22.12,0,0,0,11.68,53.36C8,67.18,8,96,8,96s0,28.82,3.68,42.64A22.12,22.12,0,0,0,27.24,154.3C41,158,96,158,96,158s55,0,68.76-3.7a22.12,22.12,0,0,0,15.56-15.66C184,124.82,184,96,184,96S184,67.18,180.32,53.36ZM78,122.17V69.83L124,96Z" transform="translate(-8 -34)"/></svg>