<?xml version="1.0" encoding="UTF-8"?><svg id="uuid-5c2559bb-5152-4f46-aa2b-31dcc1fe73e6" xmlns="http://www.w3.org/2000/svg" viewBox="0 0 512 512"><path d="M206,40h100v100h-14.91c.18,1.91,.33,5.29,.46,10h2.93c11.33,0,20.51-9.18,20.51-20.51V50.51c0-11.33-9.18-20.51-20.51-20.51h-78.98c-11.33,0-20.51,9.18-20.51,20.51v78.98c0,11.33,9.18,20.51,20.51,20.51h5.56c.1-4.04,.21-7.11,.33-8.5,.04-.5,.1-1.01,.17-1.5h-15.58V40Z" style="fill:none;"/><path d="M430.62,267.99c-.04-11.26-6.9-18.82-17.06-18.82-10.15,0-16.99,7.57-17.05,18.82-.02,3.6-.01,7.19-.01,10.78,0,2.7,0,5.39,0,8.09-.02,6.91-3.58,11.37-9.07,11.37h-.15c-6.67-.1-9.06-5.85-9.07-11.21,0-3.9,0-7.8,.01-11.7,.02-7.31,.04-14.86-.07-22.31-.15-9.7-7.57-17.3-16.89-17.3-2.07,0-4.14,.38-6.14,1.13-6.96,2.61-10.86,8.79-10.98,17.42-.04,3.22-.03,6.48-.02,9.63,.02,5.31,.04,10.8-.21,16.12-.23,4.68-3.89,8.14-8.71,8.24h-.2c-4.68,0-8.38-3.29-9-7.99-.17-1.34-.18-2.82-.18-4.38v-.63c-.01-3.65,0-7.3,0-10.95,.02-7.4,.03-15.05-.11-22.6-.17-8.55-5.42-15.11-13.4-16.72-1.22-.25-2.45-.37-3.66-.37-9.47,0-16.72,7.37-16.85,17.14-.08,5.97-.06,12.02-.05,17.87,.02,5.74,.03,11.67-.04,17.49-.07,5.6-3.79,9.51-9.04,9.51-.56,0-1.13-.05-1.71-.14-4.76-.76-7.49-4.55-7.49-10.39-.01-23.35-.01-46.7-.01-70.05,0-12.01,0-24.03,0-36.04,0-6.67,0-13.33,0-20,0-.87,0-1.74,0-2.61,0-2.69-.38-5.16-1.07-7.39h-31.98c-.67,2.16-1.07,4.54-1.1,7.13-.01,.79,0,1.59,0,2.38v20.49s0,167.65,0,167.65c0,2.98,0,5.96,.01,8.94,.02,7.41,.03,15.07-.06,22.58-.06,4.81-2.2,7.93-6.35,9.27-1.12,.36-2.24,.55-3.32,.55-4.77,0-8.57-3.55-9.91-9.27-1.95-8.33-3.9-16.67-5.85-25.01-3.01-12.9-6.03-25.8-9.06-38.7-1.91-8.11-5.56-16.4-18.18-16.4-1.44,0-2.98,.1-4.71,.3-3.94,.47-8.3,1.42-10.81,4.99-2.5,3.54-1.95,7.89-1.08,11.67,2.14,9.36,4.3,18.72,6.46,28.08,4.36,18.9,8.87,38.45,13.18,57.69,7.28,32.51,23.94,62.87,50.92,92.82,2.29,2.54,6.07,3.44,8.62,3.45,21.47,.04,42.95,.07,64.42,.07,26.34,0,50.62-.04,74.23-.12,3.44-.01,7.53-2.36,9.32-5.35,17.27-28.91,27.65-58.68,30.84-88.49,1.87-17.46,2.15-35.28,2.42-52.5,.05-3.03,.1-6.05,.15-9.08,.32-17.11,.23-34.49,.14-51.3-.02-4.62-.05-9.25-.06-13.87Z" style="fill:none;"/><rect x="20" y="30" width="120" height="120" rx="20.51" ry="20.51" style="fill:none;"/><rect x="370" y="30" width="120" height="120" rx="20.51" ry="20.51" style="fill:none;"/><path d="M469.49,10h-78.98c-22.34,0-40.51,18.17-40.51,40.51v78.98c0,22.34,18.17,40.51,40.51,40.51h78.98c22.34,0,40.51-18.17,40.51-40.51V50.51c0-22.34-18.17-40.51-40.51-40.51Zm20.51,119.49c0,11.33-9.18,20.51-20.51,20.51h-78.98c-11.33,0-20.51-9.18-20.51-20.51V50.51c0-11.33,9.18-20.51,20.51-20.51h78.98c11.33,0,20.51,9.18,20.51,20.51v78.98Z" style="fill:#a41e23;"/><path d="M160,50.51c0-22.34-18.17-40.51-40.51-40.51H40.51C18.17,10,0,28.17,0,50.51v78.98c0,22.34,18.17,40.51,40.51,40.51H119.49c22.34,0,40.51-18.17,40.51-40.51V50.51Zm-20,78.98c0,11.33-9.18,20.51-20.51,20.51H40.51c-11.33,0-20.51-9.18-20.51-20.51V50.51c0-11.33,9.18-20.51,20.51-20.51H119.49c11.33,0,20.51,9.18,20.51,20.51v78.98Z" style="fill:#a41e23;"/><path d="M448.95,306.2c-.04-9.99-.07-20.31-.03-30.48,.02-4.94,.01-9.05-.36-13.19-1.31-14.63-11.79-26.91-26.08-30.55-3.04-.78-6.11-1.17-9.1-1.17-5.45,0-10.9,1.3-16.2,3.87l-3.65,1.77-2.48-3.2c-7.99-10.31-18.22-15.76-29.58-15.76-5.91,0-12,1.48-18.11,4.4l-3.53,1.69-2.49-3.02c-7.9-9.6-17.19-14.27-28.4-14.27-3.4,0-7.03,.45-10.77,1.32l-6.14,1.44v-6.99c0-12.09-.04-22.91-.13-32.05h2.59c22.34,0,40.51-18.17,40.51-40.51V50.51c0-22.34-18.17-40.51-40.51-40.51h-78.98c-22.34,0-40.51,18.17-40.51,40.51v78.98c0,22.34,18.17,40.51,40.51,40.51h5.21c-.1,7.63-.17,15.27-.22,20.83v97.54l-8.28-7.18c-7.74-6.71-15.99-9.84-25.98-9.84-1.83,0-3.75,.11-5.72,.32-10.91,1.19-19.37,5.62-24.47,12.81-4.96,7-6.32,16.11-3.93,26.35,1.92,8.23,3.96,16.59,5.93,24.68,4.29,17.6,8.74,35.8,12.24,53.93,8.07,41.72,28.59,79.09,62.7,114.23,1.63,1.67,4.94,3.1,7.24,3.11,34.37,.19,68.7,.22,94.77,.22,13.19,0,26.37,0,39.56-.01h24.1c3.55-.01,6.12-1.42,8.08-4.43,25.59-39.33,39.5-81.45,41.35-125.19,1-23.65,.91-47.81,.83-71.16ZM215.51,150c-11.33,0-20.51-9.18-20.51-20.51V50.51c0-11.33,9.18-20.51,20.51-20.51h78.98c11.33,0,20.51,9.18,20.51,20.51v78.98c0,11.33-9.18,20.51-20.51,20.51h-2.93c-.13-4.71-.29-8.09-.46-10-.04-.44-.08-.83-.13-1.11-2.62-16.97-17.27-29.28-34.83-29.28-.5,0-1.01,.01-1.52,.03-16.92,.68-30.87,13.62-33.05,30.36-.06,.5-.12,1-.17,1.5-.12,1.38-.23,4.46-.33,8.5h-5.56Zm215.03,183.15c-.06,3.02-.1,6.05-.15,9.08-.27,17.23-.55,35.04-2.42,52.5-3.19,29.81-13.57,59.58-30.84,88.49-1.78,2.99-5.88,5.34-9.32,5.35-23.61,.08-47.89,.12-74.23,.12-21.47,0-42.95-.03-64.42-.07-2.55,0-6.33-.91-8.62-3.45-26.99-29.95-43.65-60.31-50.92-92.82-4.31-19.24-8.82-38.79-13.18-57.69-2.16-9.36-4.32-18.72-6.46-28.08-.87-3.78-1.42-8.13,1.08-11.67,2.51-3.57,6.88-4.52,10.81-4.99,1.73-.2,3.27-.3,4.71-.3,12.62,0,16.27,8.29,18.18,16.4,3.03,12.9,6.04,25.8,9.06,38.7,1.95,8.34,3.9,16.67,5.85,25.01,1.34,5.72,5.13,9.27,9.91,9.27,1.08,0,2.2-.18,3.32-.55,4.16-1.34,6.3-4.46,6.35-9.27,.09-7.52,.07-15.18,.06-22.58,0-2.98-.01-5.96-.01-8.94V170s0-20,0-20v-.49c0-.79,0-1.59,0-2.38,.04-2.59,.43-4.97,1.1-7.13,2.32-7.44,8.18-12.09,15.96-12.09h.2c7.75,.08,13.54,4.72,15.82,12.09,.69,2.23,1.07,4.71,1.07,7.39,0,.87,0,1.74,0,2.61,0,6.67,0,13.33,0,20,0,12.01,0,24.03,0,36.04,0,23.35,0,46.7,.01,70.05,0,5.84,2.73,9.63,7.49,10.39,.58,.09,1.15,.14,1.71,.14,5.25,0,8.97-3.91,9.04-9.51,.08-5.82,.06-11.75,.04-17.49-.02-5.85-.03-11.9,.05-17.87,.13-9.77,7.37-17.14,16.85-17.14,1.21,0,2.44,.12,3.66,.37,7.97,1.6,13.23,8.17,13.4,16.72,.14,7.55,.13,15.2,.11,22.6,0,3.65-.01,7.3,0,10.95v.63c0,1.57,0,3.05,.18,4.38,.61,4.71,4.31,8,9,8h.2c4.82-.09,8.48-3.56,8.71-8.24,.26-5.32,.24-10.81,.21-16.12-.01-3.15-.03-6.41,.02-9.63,.12-8.62,4.02-14.81,10.98-17.42,2-.75,4.07-1.13,6.14-1.13,9.32,0,16.74,7.6,16.89,17.3,.12,7.45,.09,15,.07,22.31-.01,3.9-.02,7.8-.01,11.7,.01,5.35,2.4,11.11,9.07,11.21h.15c5.49,0,9.05-4.46,9.07-11.37,0-2.7,0-5.39,0-8.09,0-3.59,0-7.19,.01-10.78,.06-11.25,6.91-18.81,17.05-18.82,10.17,0,17.02,7.56,17.06,18.82,.02,4.62,.04,9.25,.06,13.87,.09,16.8,.17,34.18-.14,51.3Z" style="fill:#a41e23;"/><path d="M216,50h80V122.95c-7.66-14.1-22.67-23.34-39.86-23.34-.64,0-1.28,.01-1.92,.04-16.7,.67-31.11,10.45-38.22,24.76V50Z" style="fill:#a41e23;"/></svg>