<?xml version="1.0" encoding="UTF-8"?><svg id="uuid-b0bef3f1-383f-4880-82e6-bbcee26bf22e" xmlns="http://www.w3.org/2000/svg" viewBox="0 0 512 512"><path d="M235.74,472c3.17,0,6.33,.02,9.5,.03-3.17,0-6.33-.03-9.5-.03-3.08,0-6.17,.02-9.25,.03,3.08,0,6.17-.03,9.25-.03Zm123.3,40H153.01c-5.58-3.11-7.19-7.94-7.09-14.16,.27-17.16,.09-34.32,.09-51.48,0-22.35,11.9-34.34,34.11-34.36,1.81,0,3.62,0,5.77,0,.78-9.39,3.19-17.85,9.13-25.07,4.67-5.69,10.27-10.06,17.22-12.3,3.27-1.05,3.86-2.71,3.84-5.76-.13-15.83-.24-31.66,0-47.48,.19-12.53-4.66-22.08-15-29.21-28.17-19.44-51.06-43.96-66.84-74.29-5.75-11.04-13.06-17.27-24.42-22.06-25.7-10.84-41.92-31.53-52.36-56.94-8.14-19.83-11.38-40.64-11.4-61.96-.02-17.7,12.72-30.53,30.51-30.88,9.62-.19,19.25-.03,29.45-.03,0-4.51,0-8.62,0-12.73,.03-17.47,7.17-27.23,23.75-32.52,.45-.14,.84-.5,1.25-.76h250.02c9.12,2.9,17.71,7.02,21.34,16.43,2.27,5.88,2.7,12.51,3.58,18.86,.45,3.26,.08,6.63,.08,10.71,6.78,0,13.37-.15,19.95,.04,5.97,.18,12.12-.06,17.86,1.27,12.44,2.89,21.68,13.63,21.9,26.61,.62,35.37-6.92,68.48-30.03,96.53-11.94,14.5-27.04,24.56-44.96,30.23-3.07,.97-5.12,2.34-6.55,5.35-16.69,35.03-40.98,63.72-72.85,85.84-10.66,7.4-15.64,17.1-15.4,30.01,.29,15.82,0,31.65,.17,47.48,.02,1.57,1.1,4.1,2.3,4.55,17.31,6.55,26.11,19.24,27.8,38.08,1.85,0,3.76,0,5.68,0,22.21,.02,34.11,12.01,34.12,34.36,0,17.16-.18,34.32,.09,51.48,.1,6.22-1.51,11.05-7.09,14.16Zm36.36-334.67c11.07-5.43,19.29-12.17,26.02-20.56,18.99-23.69,24.18-51.67,24.48-81.02,.05-5.33-3.8-9.34-9.12-9.53-10.09-.36-20.21-.1-30.73-.1-.19,37.27,2.3,74.39-10.65,111.22Zm-278.74,.12c-12.81-36.77-10.57-73.87-10.61-111.45-9.94,0-19.23-.09-28.53,.03-7.74,.1-11.62,4.17-11.44,11.96,.46,20.3,3.48,40.08,12.07,58.71,8.04,17.44,20.07,31.12,38.51,40.75Zm90.02,234.37h99.16c-.73-11.15-7.61-18.43-18.16-19.72-8.8-1.07-11.62-4.17-11.64-12.96-.03-19.16-.04-38.32,.02-57.48,0-3.49,.12-7,.58-10.46,2.18-16.58,12.14-27.58,25.19-37.2,55.16-40.69,83.09-95.67,84.16-164.15,.4-25.49,.07-50.98,.06-76.48,0-9.88-3.41-13.37-13.13-13.37-77.98-.01-155.97-.01-233.95,0-9.43,0-12.92,3.55-12.93,13.07-.02,25.83-.03,51.65,0,77.48,.03,19.77,2.73,39.17,8.58,58.07,13.5,43.6,38.4,79.24,75.82,105.46,17.85,12.51,26.43,28.54,25.72,50.28-.59,17.81-.12,35.65-.12,53.48,0,10.39-2.15,12.88-12.31,14.3-10.36,1.45-18.04,10.26-17.03,19.68Zm139.34,32.64c-.03-8.8-3.68-12.45-12.52-12.45-51.63-.03-103.25-.02-154.88,0-9.04,0-12.57,3.66-12.59,12.89-.03,14.15-.02,28.31,0,42.46,0,1.44,.17,2.88,.28,4.46h179.73c0-16.11,.03-31.73-.01-47.36ZM220.64,80.51c-17.58,8.58-29.29,24-29.3,41.59-.01,22.11,18.33,40.91,43.73,46.9-32.72-7.06-56.72-30.24-56.72-57.76s22.95-49.68,54.57-57.27l37.26,114.14-45.84-34.39,12.7-2.73-16.39-50.51v.03Zm70.86,61.94c17.58-8.58,29.3-23.99,29.3-41.59,.01-22.1-18.34-40.9-43.73-46.9,32.72,7.06,56.72,30.24,56.72,57.76s-22.96,49.68-54.57,57.27l-37.26-114.14,45.84,34.39-12.7,2.73,16.39,50.51v-.03Z" style="fill:#a41e23;"/></svg>