<?xml version="1.0" encoding="UTF-8"?><svg id="uuid-457836f4-fdcb-4f04-ab12-ec6d2d02fada" xmlns="http://www.w3.org/2000/svg" viewBox="0 0 696.93 514.15"><path d="M303.33,299.37c-.34,25.21,15.67,40.88,36.45,44.97v-71.2c-2.38-1.02-6.47-2.04-10.9-3.07-34.07-9.2-68.13-22.48-68.13-67.79s38.15-70.52,79.03-72.9v-26.23h20.1v26.23c40.54,4.43,73.92,25.55,76.65,72.56h-48.37c-.34-18.05-12.94-32.7-28.27-32.7v60.3c5.45,1.36,11.24,2.73,17.37,4.43,66.43,18.4,67.79,56.21,67.79,79.03,0,19.42-17.37,66.77-85.16,71.2v28.96h-20.1v-28.96c-50.42-3.75-79.71-31.34-84.82-84.82h48.37Zm36.45-130.13c-15.33,0-30.66,9.54-30.66,28.28,0,14.99,8.86,22.14,30.66,27.25v-55.53Zm20.1,175.1c16.69-1.7,36.79-11.58,36.79-33.39,0-18.05-9.88-24.53-36.79-32.02v65.41Zm222.61-87.16c0-61.4-23.91-119.12-67.32-162.53-27.36-27.36-60.41-46.97-96.48-57.73l-5.17,25.04c31.24,9.7,59.87,26.89,83.66,50.69,38.61,38.61,59.87,89.94,59.87,144.54s-21.26,105.93-59.87,144.54c-34.25,34.25-78.53,54.84-126.21,59.05l10.26-24.15-49.44,20.85-39.91,16.84,33.51,14.14,55.84,23.55-10.89-25.64c54.73-4.14,105.62-27.43,144.84-66.65,43.41-43.41,67.32-101.13,67.32-162.53Zm-472.36-2.36c0,61.4,23.91,119.12,67.32,162.53,27.36,27.36,60.41,46.97,96.48,57.73l5.17-25.04c-31.24-9.7-59.87-26.89-83.66-50.69-38.61-38.61-59.87-89.94-59.87-144.54s21.26-105.93,59.87-144.54c34.25-34.25,78.53-54.84,126.21-59.05l-10.26,24.15,49.44-20.85,39.91-16.84-33.51-14.14L311.4,0l10.89,25.64c-54.73,4.14-105.62,27.43-144.84,66.65-43.41,43.41-67.32,101.13-67.32,162.53Z" style="fill:#a41e23;"/></svg>