<svg xmlns="http://www.w3.org/2000/svg" viewBox="0 0 163 68"><path d="M12.62 9.58c-5.76 5-6.78 18.48-6.6 24.54-.18 7.14.9 21 7.5 25.2a22.9 22.9 0 004.76 2.24c6.21 2.15 58 2.47 62.29 2.56 6 0 61.59 0 70.59-4.5 6.3-4.5 7.5-13.2 7.8-25.5.06-12.24-.9-20.64-7.2-25.44-5-3.84-65.85-4.68-71.19-4.5-5.46-.3-62.19.36-67.95 5.4" fill="#0dacec"/><path d="M68.76 39.09h-2.42v-4.93h-4.52v4.93H59.4V27.67h2.42v4.47h4.52v-4.47h2.42zm8.32 0l-.46-1.19h-.06a3.44 3.44 0 01-1.24 1.1 3.94 3.94 0 01-1.66.3 2.68 2.68 0 01-2-.72 2.77 2.77 0 01-.66-2.1 2.29 2.29 0 011-2 5.65 5.65 0 012.93-.73l1.52-.05v-.38A1.19 1.19 0 0075 31.94a6.19 6.19 0 00-2.46.63L71.77 31a7.15 7.15 0 013.34-.78 4.19 4.19 0 012.7.76 2.85 2.85 0 01.94 2.33v5.82zm-.7-4.09h-.92a3 3 0 00-1.55.38 1.18 1.18 0 00-.51 1c0 .67.39 1 1.16 1a1.81 1.81 0 001.32-.38 1.69 1.69 0 00.5-1.27zm7-4.68v3.19c0 .76.35 1.14 1.06 1.14a5.14 5.14 0 001.27-.15 10 10 0 001.2-.41v-3.73h2.38v8.73H86.9v-3.47a7.39 7.39 0 01-1.54.62 5.69 5.69 0 01-1.38.18 3.15 3.15 0 01-2.21-.73 2.71 2.71 0 01-.77-2.08v-3.25zm10.86 0v3.35h3.33v-3.31h2.38v8.73h-2.39v-3.6h-3.33v3.6h-2.38v-8.73zm10.6 0v3.45q0 .54-.18 2.67l4-6.12h2.87v8.73h-2.31v-3.44c0-.62.05-1.5.16-2.63l-4 6.11h-2.86v-8.73zm15.63 0v3.19q0 1.14 1.05 1.14a5.17 5.17 0 001.28-.15 9.88 9.88 0 001.19-.41v-3.73h2.38v8.73H124v-3.47a7 7 0 01-1.54.62 5.55 5.55 0 01-1.37.18 3.13 3.13 0 01-2.21-.73 2.71 2.71 0 01-.78-2.08v-3.25zm14 8.73L134 37.9a3.36 3.36 0 01-1.28 1.1 3.91 3.91 0 01-1.66.3 2.68 2.68 0 01-2-.72 2.77 2.77 0 01-.72-2.05 2.29 2.29 0 011-2 5.68 5.68 0 012.93-.73l1.52-.05v-.38a1.19 1.19 0 00-1.36-1.33 6.19 6.19 0 00-2.46.63l-.8-1.67a7.15 7.15 0 013.34-.78 4.18 4.18 0 012.7.76 2.85 2.85 0 01.94 2.33v5.82zm-.7-4.05h-.92a3 3 0 00-1.55.38 1.18 1.18 0 00-.51 1c0 .67.39 1 1.16 1a1.81 1.81 0 001.32-.47 1.69 1.69 0 00.5-1.27zm12.13-4.68v1.78h-2.86v7h-2.39v-7h-2.85v-1.74zM46.36 18.64a.67.67 0 01.43.16.64.64 0 01.21.47v18.49a.64.64 0 01-.21.47.62.62 0 01-.43.16h-.06l-15.2-1.6-1.5-.15L29 38a7.77 7.77 0 01-3.24 3.75 11.82 11.82 0 00.81-3.49l.17-1.95-1.95-.21-5.26-.55A.62.62 0 0119 35V22.08a.64.64 0 01.56-.63l26.74-2.81h.06m0-2h-.27l-26.74 2.82A2.63 2.63 0 0017 22.08V35a2.63 2.63 0 002.35 2.62l5.26.55a8.11 8.11 0 01-3.28 6.19.48.48 0 00-.16.56.5.5 0 00.45.31h.05c4.35-.5 7.77-2.81 9.22-6.4l15.2 1.6h.27a2.59 2.59 0 001.76-.67 2.62 2.62 0 00.88-2V19.27a2.64 2.64 0 00-2.64-2.63zM25.19 27.11a1.5 1.5 0 101.5 1.5 1.5 1.5 0 00-1.5-1.5zm7.06 0a1.5 1.5 0 101.5 1.5 1.5 1.5 0 00-1.5-1.5zm7 0a1.5 1.5 0 101.5 1.5 1.51 1.51 0 00-1.45-1.5z" fill="#fff"/></svg>