<svg xmlns="http://www.w3.org/2000/svg" xmlns:xlink="http://www.w3.org/1999/xlink" viewBox="0 0 1200 1200"><defs><clipPath id="clip-path"><rect width="1200" height="1200" transform="translate(1200 1200) rotate(180)" style="fill:none"/></clipPath><linearGradient id="linear-gradient" x1="-338.75" y1="586.28" x2="1688.14" y2="586.28" gradientTransform="matrix(1.22, 0.21, -0.23, 1.38, -84.14, -336.47)" gradientUnits="userSpaceOnUse"><stop offset="0" stop-color="#7fa05b"/><stop offset="0.41" stop-color="#89a768"/><stop offset="1" stop-color="#9db681"/></linearGradient><linearGradient id="linear-gradient-2" x1="-511.56" y1="232.13" x2="849.95" y2="232.13" gradientTransform="translate(110.22 -93.21) rotate(9.62)" gradientUnits="userSpaceOnUse"><stop offset="0" stop-color="#7fa05b"/><stop offset="0.53" stop-color="#89a768"/><stop offset="1" stop-color="#9db681"/></linearGradient><linearGradient id="linear-gradient-3" x1="-390.01" y1="794.61" x2="1634.26" y2="794.61" gradientTransform="matrix(-0.99, 0.17, 0.17, 0.99, 811.93, -93.21)" gradientUnits="userSpaceOnUse"><stop offset="0" stop-color="#7fa05b"/><stop offset="0.53" stop-color="#89a768"/><stop offset="0.98" stop-color="#9db681"/><stop offset="1" stop-color="#725f04"/></linearGradient><linearGradient id="linear-gradient-4" x1="742.51" y1="1099.13" x2="1587.1" y2="1099.13" gradientTransform="translate(110.22 -93.21) rotate(9.62)" gradientUnits="userSpaceOnUse"><stop offset="0" stop-color="#7fa05b"/><stop offset="0.53" stop-color="#89a768"/><stop offset="1" stop-color="#9db681"/></linearGradient><linearGradient id="linear-gradient-5" x1="-633.05" y1="888.86" x2="1938.42" y2="888.86" gradientTransform="translate(110.22 -93.21) rotate(9.62)" gradientUnits="userSpaceOnUse"><stop offset="0" stop-color="#7fa05b"/><stop offset="0.4" stop-color="#89a768"/><stop offset="1" stop-color="#9db681"/></linearGradient><linearGradient id="linear-gradient-6" x1="-237.77" y1="930.16" x2="1590.34" y2="930.16" gradientTransform="translate(110.22 -93.21) rotate(9.62)" gradientUnits="userSpaceOnUse"><stop offset="0.41" stop-color="#89a768"/><stop offset="1" stop-color="#9db681"/></linearGradient><linearGradient id="linear-gradient-7" x1="-61.11" y1="1068.3" x2="1942.95" y2="1068.3" gradientTransform="translate(110.22 -93.21) rotate(9.62)" gradientUnits="userSpaceOnUse"><stop offset="0" stop-color="#89a768"/><stop offset="1" stop-color="#9db681"/></linearGradient><linearGradient id="linear-gradient-8" x1="-282.01" y1="142.05" x2="1092.75" y2="142.05" gradientTransform="translate(101.77 -68.24) rotate(7.3)" xlink:href="#linear-gradient-2"/><linearGradient id="linear-gradient-9" x1="-384.77" y1="496.26" x2="1642.11" y2="496.26" gradientTransform="matrix(-0.99, 0.17, 0.17, 0.99, 1119.92, -87.02)" gradientUnits="userSpaceOnUse"><stop offset="0" stop-color="#7fa05b"/><stop offset="0.41" stop-color="#89a768"/><stop offset="1" stop-color="#9db681"/></linearGradient><linearGradient id="linear-gradient-10" x1="-376.07" y1="169.67" x2="782.92" y2="169.67" gradientTransform="matrix(-0.99, 0.17, 0.17, 0.99, 1119.92, -87.02)" gradientUnits="userSpaceOnUse"><stop offset="0.53" stop-color="#89a768"/><stop offset="1" stop-color="#9db681"/></linearGradient><linearGradient id="linear-gradient-11" x1="-376.97" y1="203.04" x2="984.54" y2="203.04" gradientTransform="matrix(-0.99, 0.17, 0.17, 0.99, 1119.92, -87.02)" xlink:href="#linear-gradient-2"/><linearGradient id="linear-gradient-12" x1="-374.19" y1="152.22" x2="331.02" y2="152.22" gradientTransform="matrix(-0.99, 0.17, 0.17, 0.99, 1119.92, -87.02)" gradientUnits="userSpaceOnUse"><stop offset="0.53" stop-color="#89a768"/><stop offset="1" stop-color="#9db681"/></linearGradient><linearGradient id="linear-gradient-13" x1="-255.43" y1="765.52" x2="1768.85" y2="765.52" gradientTransform="matrix(-0.99, 0.17, 0.17, 0.99, 1119.92, -87.02)" xlink:href="#linear-gradient-2"/><linearGradient id="linear-gradient-14" x1="622.75" y1="1065.47" x2="1467.33" y2="1065.47" gradientTransform="matrix(-0.99, 0.17, 0.17, 0.99, 1119.92, -87.02)" xlink:href="#linear-gradient-2"/><linearGradient id="linear-gradient-15" x1="1134.12" y1="1018.33" x2="1771.93" y2="1018.33" gradientTransform="matrix(-0.99, 0.17, 0.17, 0.99, 1119.92, -87.02)" xlink:href="#linear-gradient-2"/><linearGradient id="linear-gradient-16" x1="777.49" y1="-128.25" x2="1415.31" y2="-128.25" gradientTransform="matrix(-0.99, 0.17, 0.17, 0.99, 1119.92, -87.02)" xlink:href="#linear-gradient-2"/><linearGradient id="linear-gradient-17" x1="-498.47" y1="859.77" x2="2073" y2="859.77" gradientTransform="matrix(-0.99, 0.17, 0.17, 0.99, 1119.92, -87.02)" xlink:href="#linear-gradient-5"/><linearGradient id="linear-gradient-18" x1="-103.18" y1="901.07" x2="1724.92" y2="901.07" gradientTransform="matrix(-0.99, 0.17, 0.17, 0.99, 1119.92, -87.02)" gradientUnits="userSpaceOnUse"><stop offset="0" stop-color="#7fa05b"/><stop offset="0.17" stop-color="#89a768"/><stop offset="0.53" stop-color="#9db681"/><stop offset="1" stop-color="#7fa05b"/></linearGradient><linearGradient id="linear-gradient-19" x1="624.36" y1="1003.09" x2="1833.35" y2="1003.09" gradientTransform="matrix(-0.99, 0.17, 0.17, 0.99, 1119.92, -87.02)" xlink:href="#linear-gradient-2"/><clipPath id="clip-path-2"><rect width="1200" height="1200" style="fill:none"/></clipPath><linearGradient id="linear-gradient-20" x1="-669.98" y1="493.24" x2="1564.4" y2="493.24" gradientTransform="translate(1089.78 1293.21) rotate(-170.38)" gradientUnits="userSpaceOnUse"><stop offset="0" stop-color="#71af36"/><stop offset="0.41" stop-color="#47840d"/><stop offset="1" stop-color="#529e0a"/></linearGradient><linearGradient id="linear-gradient-21" x1="-660.38" y1="133.22" x2="617.24" y2="133.22" gradientTransform="translate(1089.78 1293.21) rotate(-170.38)" gradientUnits="userSpaceOnUse"><stop offset="0" stop-color="#71af36"/><stop offset="0.53" stop-color="#47840d"/><stop offset="1" stop-color="#529e0a"/></linearGradient><linearGradient id="linear-gradient-22" x1="-661.38" y1="170.01" x2="839.51" y2="170.01" xlink:href="#linear-gradient-21"/><linearGradient id="linear-gradient-23" x1="-527.39" y1="790.07" x2="1704.1" y2="790.07" xlink:href="#linear-gradient-21"/><linearGradient id="linear-gradient-24" x1="719.78" y1="1118.15" x2="1650.82" y2="1118.15" xlink:href="#linear-gradient-21"/><linearGradient id="linear-gradient-25" x1="1019.13" y1="1155.71" x2="1722.24" y2="1155.71" xlink:href="#linear-gradient-21"/><linearGradient id="linear-gradient-26" x1="-795.31" y1="893.96" x2="2039.39" y2="893.96" gradientTransform="translate(1089.78 1293.21) rotate(-170.38)" gradientUnits="userSpaceOnUse"><stop offset="0" stop-color="#71af36"/><stop offset="0.4" stop-color="#47840d"/><stop offset="1" stop-color="#529e0a"/></linearGradient><linearGradient id="linear-gradient-27" x1="-359.56" y1="939.49" x2="1655.68" y2="939.49" gradientTransform="translate(1089.78 1293.21) rotate(-170.38)" gradientUnits="userSpaceOnUse"><stop offset="0" stop-color="#71af36"/><stop offset="0.17" stop-color="#47840d"/><stop offset="0.53" stop-color="#71af36"/><stop offset="1" stop-color="#529e0a"/></linearGradient><linearGradient id="linear-gradient-28" x1="442.46" y1="1051.95" x2="1775.21" y2="1051.95" xlink:href="#linear-gradient-21"/><linearGradient id="linear-gradient-29" x1="-345.51" y1="431.96" x2="1888.87" y2="431.96" gradientTransform="matrix(0.99, -0.17, -0.17, -0.99, 80.08, 1287.02)" gradientUnits="userSpaceOnUse"><stop offset="0" stop-color="#7fa05b"/><stop offset="0.41" stop-color="#89a768"/><stop offset="1" stop-color="#3a6d03"/></linearGradient><linearGradient id="linear-gradient-30" x1="-335.91" y1="71.95" x2="941.72" y2="71.95" gradientTransform="matrix(0.99, -0.17, -0.17, -0.99, 80.08, 1287.02)" gradientUnits="userSpaceOnUse"><stop offset="0" stop-color="#7fa05b"/><stop offset="0.53" stop-color="#89a768"/><stop offset="1" stop-color="#3a6d03"/></linearGradient><linearGradient id="linear-gradient-31" x1="-336.91" y1="108.74" x2="1163.98" y2="108.74" xlink:href="#linear-gradient-30"/><linearGradient id="linear-gradient-32" x1="-202.92" y1="728.79" x2="2028.58" y2="728.79" xlink:href="#linear-gradient-30"/><linearGradient id="linear-gradient-33" x1="1044.25" y1="1056.87" x2="1975.29" y2="1056.87" gradientTransform="matrix(0.99, -0.17, -0.17, -0.99, 80.08, 1287.02)" gradientUnits="userSpaceOnUse"><stop offset="0" stop-color="#7fa05b"/><stop offset="0.53" stop-color="#89a768"/><stop offset="1" stop-color="#3a6d03"/></linearGradient><linearGradient id="linear-gradient-34" x1="1343.6" y1="1094.43" x2="2046.71" y2="1094.43" gradientTransform="matrix(0.99, -0.17, -0.17, -0.99, 80.08, 1287.02)" gradientUnits="userSpaceOnUse"><stop offset="0" stop-color="#7fa05b"/><stop offset="0.53" stop-color="#89a768"/><stop offset="1" stop-color="#3a6d03"/></linearGradient><linearGradient id="linear-gradient-35" x1="-470.84" y1="832.68" x2="2363.87" y2="832.68" gradientTransform="matrix(0.99, -0.17, -0.17, -0.99, 80.08, 1287.02)" gradientUnits="userSpaceOnUse"><stop offset="0" stop-color="#7fa05b"/><stop offset="0.4" stop-color="#89a768"/><stop offset="1" stop-color="#3a6d03"/></linearGradient><linearGradient id="linear-gradient-36" x1="-35.09" y1="878.21" x2="1980.15" y2="878.21" gradientTransform="matrix(0.99, -0.17, -0.17, -0.99, 80.08, 1287.02)" gradientUnits="userSpaceOnUse"><stop offset="0" stop-color="#7fa05b"/><stop offset="0.17" stop-color="#3a6d03"/><stop offset="0.53" stop-color="#89a768"/><stop offset="1" stop-color="#3a6d03"/></linearGradient><linearGradient id="linear-gradient-37" x1="766.93" y1="990.68" x2="2099.68" y2="990.68" xlink:href="#linear-gradient-30"/><radialGradient id="radial-gradient" cx="845.16" cy="574.31" r="287.99" gradientTransform="translate(-2121.67 -2179.43) scale(3.23 4.85)" gradientUnits="userSpaceOnUse"><stop offset="0" stop-color="#6eae31" stop-opacity="0.2"/><stop offset="0.14" stop-color="#6eae31" stop-opacity="0.27"/><stop offset="0.39" stop-color="#6eae31" stop-opacity="0.44"/><stop offset="0.71" stop-color="#6eae31" stop-opacity="0.72"/><stop offset="1" stop-color="#6eae31"/></radialGradient><linearGradient id="linear-gradient-38" x1="-61.23" y1="367.25" x2="1139.16" y2="789.78" gradientUnits="userSpaceOnUse"><stop offset="0" stop-color="#6eae31"/><stop offset="0.22" stop-color="#80b150"/><stop offset="0.53" stop-color="#9db681"/><stop offset="0.65" stop-color="#9bb67e"/><stop offset="0.75" stop-color="#95b573"/><stop offset="0.84" stop-color="#8bb362"/><stop offset="0.93" stop-color="#7cb049"/><stop offset="1" stop-color="#6eae31"/></linearGradient></defs><g style="isolation:isolate"><g id="Layer_1" data-name="Layer 1"><g id="BG"><g style="clip-path:url(#clip-path)"><polygon points="1961.02 72.98 1158.46 -51.64 -612.23 333.43 -761.01 1153.64 1868.72 581.75 1961.02 72.98" style="fill:url(#linear-gradient)"/><polygon points="750.46 8.92 -460.71 219.58 -473.17 287.66 949.65 40.19 750.46 8.92" style="opacity:0.5;fill:url(#linear-gradient-2)"/><polygon points="-610.76 504.89 1502.34 872.42 1532.91 1039.46 -580.19 671.92 -610.76 504.89" style="opacity:0.5;fill:url(#linear-gradient-3)"/><polygon points="1426.54 1093.1 543.92 1246.61 747.28 1278.53 1413.82 1162.6 1426.54 1093.1" style="fill:url(#linear-gradient-4)"/><polygon points="1502.34 671.92 -610.76 1039.46 -614.12 1057.84 -423.38 1087.78 1487.05 755.5 1502.34 671.92" style="opacity:0.5;fill:url(#linear-gradient-5)"/><polygon points="1487.05 755.5 -423.38 1087.78 185.53 1183.36 1448.96 963.61 1487.05 755.5" style="opacity:0.75;fill:url(#linear-gradient-6)"/><polygon points="1576.07 879.12 -518.23 1243.38 75.86 1336.63 1538.91 1082.16 1576.07 879.12" style="opacity:0.5;fill:url(#linear-gradient-7)"/><polygon points="413.61 -118.63 -24.97 -23.94 -70.54 298.09 1354.85 -9.66 413.61 -118.63" style="fill:url(#linear-gradient-8)"/><g style="mix-blend-mode:overlay"><polygon points="-506.71 142.16 142.94 40.19 1565.76 287.66 1672.77 872.42 -440.32 504.89 -506.71 142.16" style="opacity:0.5;fill:url(#linear-gradient-9)"/><polygon points="788.41 -61.13 1525.38 67.05 1553.3 219.58 342.13 8.92 788.41 -61.13" style="fill:url(#linear-gradient-10)"/><polygon points="342.13 8.92 1553.3 219.58 1565.76 287.66 142.94 40.19 342.13 8.92" style="fill:url(#linear-gradient-11)"/><polygon points="1198.58 -66.5 1425.35 -27.06 1455.38 137.05 718.41 8.87 1198.58 -66.5" style="fill:url(#linear-gradient-12)"/><polygon points="-440.32 504.89 1672.77 872.42 1703.35 1039.46 -409.75 671.92 -440.32 504.89" style="opacity:0.5;fill:url(#linear-gradient-13)"/><polygon points="-83.95 1046.1 798.66 1199.61 595.3 1231.53 -71.23 1115.6 -83.95 1046.1" style="fill:url(#linear-gradient-14)"/><polygon points="-321.23 1075.6 345.3 1191.53 -282 1290 -321.23 1075.6" style="fill:url(#linear-gradient-15)"/><polygon points="-161.23 -114.4 505.3 1.53 -122 100 -161.23 -114.4" style="fill:url(#linear-gradient-16)"/><polygon points="-409.75 671.92 1703.35 1039.46 1706.71 1057.84 1515.96 1087.78 -394.46 755.5 -409.75 671.92" style="opacity:0.75;fill:url(#linear-gradient-17)"/><polygon points="-394.46 755.5 1515.96 1087.78 907.06 1183.36 -356.37 963.61 -394.46 755.5" style="opacity:0.75;fill:url(#linear-gradient-18)"/><polygon points="-356.37 963.61 907.06 1183.36 548.66 1239.61 -333.95 1086.1 -356.37 963.61" style="opacity:0.5;fill:url(#linear-gradient-19)"/></g></g><g style="mix-blend-mode:overlay"><g style="clip-path:url(#clip-path-2)"><polygon points="-470 1134.7 246.15 1247.12 1814.62 974.31 1932.59 329.69 -396.82 734.85 -470 1134.7" style="fill:url(#linear-gradient-20)"/><polygon points="957.7 1358.81 1770.11 1217.5 1800.88 1049.36 465.73 1281.58 957.7 1358.81" style="fill:url(#linear-gradient-21)"/><polygon points="465.73 1281.58 1800.88 1049.36 1814.62 974.31 246.15 1247.12 465.73 1281.58" style="fill:url(#linear-gradient-22)"/><polygon points="-396.82 734.85 1932.59 329.69 1966.29 145.56 -363.12 550.71 -396.82 734.85" style="fill:url(#linear-gradient-23)"/><polygon points="-279.56 94.14 693.41 -75.09 469.23 -110.28 -265.54 17.52 -279.56 94.14" style="fill:url(#linear-gradient-24)"/><polygon points="-265.54 17.52 469.23 -110.28 -222.28 -218.82 -265.54 17.52" style="fill:url(#linear-gradient-25)"/><polygon points="-363.12 550.71 1966.29 145.56 1970 125.3 1759.73 92.29 -346.26 458.58 -363.12 550.71" style="fill:url(#linear-gradient-26)"/><polygon points="-346.26 458.58 1759.73 92.29 1088.49 -13.07 -304.27 229.17 -346.26 458.58" style="fill:url(#linear-gradient-27)"/><polygon points="-304.27 229.17 1088.49 -13.07 693.41 -75.09 -279.56 94.14 -304.27 229.17" style="fill:url(#linear-gradient-28)"/><g style="mix-blend-mode:overlay"><polygon points="1970 1134.7 1253.85 1247.12 -314.62 974.31 -432.59 329.69 1896.82 734.85 1970 1134.7" style="fill:url(#linear-gradient-29)"/><polygon points="542.3 1358.81 -270.11 1217.5 -300.88 1049.36 1034.27 1281.58 542.3 1358.81" style="fill:url(#linear-gradient-30)"/><polygon points="1034.27 1281.58 -300.88 1049.36 -314.62 974.31 1253.85 1247.12 1034.27 1281.58" style="fill:url(#linear-gradient-31)"/><polygon points="1896.82 734.85 -432.59 329.69 -466.29 145.56 1863.12 550.71 1896.82 734.85" style="fill:url(#linear-gradient-32)"/><polygon points="1779.56 94.14 806.59 -75.09 1030.77 -110.28 1765.54 17.52 1779.56 94.14" style="fill:url(#linear-gradient-33)"/><polygon points="1765.54 17.52 1030.77 -110.28 1722.28 -218.82 1765.54 17.52" style="fill:url(#linear-gradient-34)"/><polygon points="1863.12 550.71 -466.29 145.56 -470 125.3 -259.73 92.29 1846.26 458.58 1863.12 550.71" style="fill:url(#linear-gradient-35)"/><polygon points="1846.26 458.58 -259.73 92.29 411.51 -13.07 1804.27 229.17 1846.26 458.58" style="fill:url(#linear-gradient-36)"/><polygon points="1804.27 229.17 411.51 -13.07 806.59 -75.09 1779.56 94.14 1804.27 229.17" style="fill:url(#linear-gradient-37)"/></g></g></g><rect width="1200" height="1200" style="mix-blend-mode:multiply;fill:url(#radial-gradient)"/><rect width="1200" height="1200" style="mix-blend-mode:soft-light;fill:url(#linear-gradient-38)"/></g></g></g></svg>