<svg id="1562bf1a-c0a4-4385-a25e-1bbaa23b3def" data-name="Layer 1" xmlns="http://www.w3.org/2000/svg" viewBox="0 0 180.92 169.61"><defs><style>.ba09c29a-b496-4644-be02-8af774731c87{fill:#4d4d4d;}</style></defs><title>community_forum</title><path id="f0737661-07a8-4dce-b12c-a10fa330dee6" data-name=" 422-Speech Bubble Communication" class="ba09c29a-b496-4644-be02-8af774731c87" d="M124.27,180.81a5.64,5.64,0,0,1-5.65-5.66V146.88H84.69v-11.3h39.58a5.65,5.65,0,0,1,5.65,5.65V161.5l24.27-24.27a5.65,5.65,0,0,1,4-1.65h17V22.5H5.54V16.85a5.66,5.66,0,0,1,5.65-5.66H180.81a5.66,5.66,0,0,1,5.65,5.66V141.23a5.65,5.65,0,0,1-5.65,5.65H160.53l-32.26,32.27A5.67,5.67,0,0,1,124.27,180.81ZM49.11,156.54l32.27-32.27h42.89a5.65,5.65,0,0,0,5.65-5.65V39.46a5.65,5.65,0,0,0-5.65-5.65H11.19a5.65,5.65,0,0,0-5.65,5.65v79.16a5.65,5.65,0,0,0,5.65,5.65H39.46v28.27a5.66,5.66,0,0,0,9.65,4ZM16.85,45.12H118.62V113H79a5.66,5.66,0,0,0-4,1.66L50.77,138.89V118.62A5.65,5.65,0,0,0,45.12,113H16.85Z" transform="translate(-5.54 -11.19)"/></svg>