<svg id="82c7d6dd-1ae8-48c9-b360-f52e98adc7fa" data-name="Layer 1" xmlns="http://www.w3.org/2000/svg" viewBox="0 0 76.49 80"><defs><style>.bb8b2bde-d51b-4066-8e44-24af78454c22{fill:#67c117;}</style></defs><title>dailyWebinar-green</title><path id="30ac467c-0c0c-4903-9482-857674653e30" data-name="dailyPath" class="bb8b2bde-d51b-4066-8e44-24af78454c22" d="M76.49,28.9V16.81c0-6.25-5.64-11.33-12.65-11.51v7.14a7.53,7.53,0,0,1-15.05,0V5.29H27.46v7.15a7.53,7.53,0,0,1-15,0V5.32C5.51,5.6,0,10.64,0,16.81V67.28A12.89,12.89,0,0,0,13,80H63.47a12.89,12.89,0,0,0,13-12.72ZM70.82,67.29a7.28,7.28,0,0,1-7.35,7.18H13a7.28,7.28,0,0,1-7.36-7.18V28.9H70.82ZM16.66,3.19v9.25a3.28,3.28,0,0,0,6.55,0V3.19a3.28,3.28,0,0,0-6.55,0ZM56.31,0A3.24,3.24,0,0,0,53,3.2v9.24a3.28,3.28,0,0,0,6.55,0V3.19A3.23,3.23,0,0,0,56.31,0ZM32.77,66.93V35.77L48.35,51.35Z"/></svg>