<svg xmlns="http://www.w3.org/2000/svg" viewBox="0 0 233 68"><path d="M220.76 9.56c-5-3.84-70.85-4.68-76.19-4.5-1.54-.08-7.74-.09-16 .05-5.72-.08-9.82-.09-11-.05-1.57-.06-8.43-.06-17.36.08C93.63 5 88.85 5 87.57 5.06c-5.46-.3-70.19.36-75.95 5.4S4.84 28.94 5 35c-.18 7.14.9 21 7.5 25.2a22.9 22.9 0 004.76 2.24c6.21 2.15 66 2.47 70.29 2.56 1.86 0 9 0 18.24-.14l11.76.14c1.77 0 8.31 0 16.87-.12l10.13.12c6 0 66.59 0 75.59-4.5 6.3-4.5 7.5-13.2 7.8-25.5.06-12.24-.88-20.64-7.18-25.44z" fill="#0dacec"/><path d="M63.25 30.4a2.46 2.46 0 00-2.12 1 4.77 4.77 0 00-.75 2.86q0 3.83 2.87 3.82a9.17 9.17 0 002.92-.6v2a8.15 8.15 0 01-3.15.59 4.81 4.81 0 01-3.81-1.51 6.42 6.42 0 01-1.32-4.34 7.17 7.17 0 01.65-3.13 4.69 4.69 0 011.86-2 5.49 5.49 0 012.85-.72 7.63 7.63 0 013.34.81l-.78 2a12 12 0 00-1.29-.53 3.83 3.83 0 00-1.27-.25zm13.3 9.6h-2.38v-5.1q0-1.89-1.41-1.89a1.59 1.59 0 00-1.44.68 4.11 4.11 0 00-.45 2.2V40h-2.38V27.81h2.38v2.48c0 .19 0 .65-.05 1.36l-.06.7h.13a2.76 2.76 0 012.53-1.28 3.1 3.1 0 012.33.83 3.29 3.29 0 01.8 2.38zm8.08 0l-.46-1.19h-.06a3.44 3.44 0 01-1.24 1 3.94 3.94 0 01-1.66.3 2.68 2.68 0 01-2-.72 2.77 2.77 0 01-.73-2 2.3 2.3 0 011-2 5.65 5.65 0 012.93-.73h1.52v-.38a1.19 1.19 0 00-1.36-1.33 6.06 6.06 0 00-2.46.64l-.79-1.61a7 7 0 013.34-.79 4.19 4.19 0 012.7.76 2.85 2.85 0 01.93 2.33V40zm-.7-4H83a2.92 2.92 0 00-1.54.37 1.18 1.18 0 00-.46 1.01c0 .67.39 1 1.16 1a1.81 1.81 0 001.32-.47 1.69 1.69 0 00.5-1.27zm9.77-4.85a4.43 4.43 0 01.81.07l-.18 2.24a2.9 2.9 0 00-.71-.08 2.5 2.5 0 00-1.77.58 2.13 2.13 0 00-.64 1.65V40h-2.38v-8.76h1.8l.37 1.47h.12a3.31 3.31 0 011.1-1.19 2.69 2.69 0 011.48-.45zM98.56 40h-2.39V27.81h2.39zm6.53.16a4.49 4.49 0 01-3.3-1.17 4.39 4.39 0 01-1.19-3.29 4.86 4.86 0 011.1-3.4 3.92 3.92 0 013-1.2 3.83 3.83 0 012.88 1.06 4 4 0 011 2.91v1.13H103a2.29 2.29 0 00.6 1.58 2.13 2.13 0 001.58.57 6.54 6.54 0 001.49-.16 7.43 7.43 0 001.47-.52v1.84a5.44 5.44 0 01-1.34.46 7.77 7.77 0 01-1.71.16zm-.34-7.36a1.49 1.49 0 00-1.18.48 2.24 2.24 0 00-.5 1.36h3.35a2 2 0 00-.46-1.36 1.57 1.57 0 00-1.21-.51zm13.7 7.36c-2.72 0-4.08-1.5-4.08-4.48a4.77 4.77 0 011.11-3.4 4.14 4.14 0 013.18-1.18 6 6 0 012.72.6l-.7 1.84c-.38-.15-.73-.27-1.05-.37a3.22 3.22 0 00-1-.15q-1.86 0-1.86 2.64c0 1.71.62 2.57 1.86 2.57a4.09 4.09 0 001.28-.19 4.5 4.5 0 001.17-.57v2a4.25 4.25 0 01-1.17.51 6.79 6.79 0 01-1.46.15zm12.7-4.54a4.68 4.68 0 01-1.15 3.3 4 4 0 01-3.13 1.21 4.46 4.46 0 01-2.22-.55A3.65 3.65 0 01123.2 38a5.21 5.21 0 01-.52-2.4 4.64 4.64 0 011.12-3.33 4.1 4.1 0 013.14-1.19 4.35 4.35 0 012.22.55 3.6 3.6 0 011.47 1.57 5.18 5.18 0 01.52 2.39zm-6 0a3.61 3.61 0 00.43 2 1.51 1.51 0 001.38.66 1.49 1.49 0 001.37-.66 3.68 3.68 0 00.42-2 3.64 3.64 0 00-.42-2 1.79 1.79 0 00-2.76 0 3.62 3.62 0 00-.46 1.97zM141.26 40h-2.38v-5.1a2.5 2.5 0 00-.34-1.42 1.23 1.23 0 00-1.07-.47 1.58 1.58 0 00-1.44.67 4.08 4.08 0 00-.45 2.21V40h-2.38v-8.76h1.8l.32 1.11h.13a2.49 2.49 0 011.1-1 3.64 3.64 0 011.59-.33 3.06 3.06 0 012.31.83 3.29 3.29 0 01.79 2.38zm14.83 0h-2.38v-5.1a2.42 2.42 0 00-.34-1.42 1.23 1.23 0 00-1.07-.48 1.59 1.59 0 00-1.44.67 4.08 4.08 0 00-.45 2.21V40H148v-8.76h1.82l.32 1.11h.13a2.49 2.49 0 011.1-1 3.71 3.71 0 011.59-.33 3 3 0 012.31.83 3.29 3.29 0 01.79 2.38zm10.47-4.38a4.68 4.68 0 01-1.12 3.33 4.07 4.07 0 01-3.14 1.21 4.44 4.44 0 01-2.21-.55 3.68 3.68 0 01-1.48-1.61 5.34 5.34 0 01-.52-2.4 4.69 4.69 0 011.12-3.33 4.11 4.11 0 013.14-1.19 4.35 4.35 0 012.22.55 3.68 3.68 0 011.48 1.57 5.31 5.31 0 01.51 2.39zm-6 0a3.7 3.7 0 00.43 2 1.53 1.53 0 001.39.66 1.5 1.5 0 001.37-.66 3.69 3.69 0 00.41-2 3.64 3.64 0 00-.42-2 1.53 1.53 0 00-1.38-.65 1.51 1.51 0 00-1.37.65 3.52 3.52 0 00-.47 1.97zm14.19 1.79a2.4 2.4 0 01-.94 2 4.59 4.59 0 01-2.79.71 9.35 9.35 0 01-1.63-.13 6.26 6.26 0 01-1.25-.38v-2a8.12 8.12 0 001.49.52 6.1 6.1 0 001.47.21q1.29 0 1.29-.75a.59.59 0 00-.17-.45 2.35 2.35 0 00-.59-.4c-.28-.15-.66-.32-1.13-.52a7.17 7.17 0 01-1.48-.78 2.34 2.34 0 01-.69-.83 2.76 2.76 0 01-.21-1.14 2.07 2.07 0 01.9-1.8 4.36 4.36 0 012.56-.64 7.23 7.23 0 013.07.69l-.72 1.72a11.83 11.83 0 00-1.22-.46 3.86 3.86 0 00-1.17-.18q-1 0-1.05.57a.65.65 0 00.34.55 8.63 8.63 0 001.49.7 6.76 6.76 0 011.5.77 2.38 2.38 0 01.7.83 2.54 2.54 0 01.19 1.16zm9.87-1.79a4.68 4.68 0 01-1.12 3.33 4.07 4.07 0 01-3.14 1.21 4.44 4.44 0 01-2.21-.55 3.62 3.62 0 01-1.52-1.61 5.34 5.34 0 01-.52-2.4 4.69 4.69 0 011.12-3.33 4.11 4.11 0 013.14-1.19 4.35 4.35 0 012.22.55 3.68 3.68 0 011.48 1.57 5.31 5.31 0 01.51 2.39zm-6 0a3.61 3.61 0 00.43 2 1.77 1.77 0 002.76 0 3.79 3.79 0 00.41-2 3.64 3.64 0 00-.42-2 1.79 1.79 0 00-2.76 0 3.62 3.62 0 00-.5 1.97zm11.77 2.64a5.19 5.19 0 001.5-.27v1.77a5.42 5.42 0 01-2.19.4 2.66 2.66 0 01-2.08-.73 3.15 3.15 0 01-.65-2.16V33h-1.14v-1l1.31-.8.69-1.84h1.52v1.86h2.45V33h-2.45v4.21a.93.93 0 00.29.75 1.13 1.13 0 00.67.27zm8.22-7.16a4.52 4.52 0 01.81.07l-.18 2.24a2.9 2.9 0 00-.71-.08 2.5 2.5 0 00-1.77.58 2.13 2.13 0 00-.64 1.65V40h-2.38v-8.76h1.8l.35 1.47h.12a3.31 3.31 0 011.1-1.19 2.69 2.69 0 011.42-.45zm10.25 4.52a4.68 4.68 0 01-1.12 3.33 4.06 4.06 0 01-3.13 1.21 4.46 4.46 0 01-2.22-.55 3.68 3.68 0 01-1.56-1.61 5.34 5.34 0 01-.52-2.4 4.69 4.69 0 011.12-3.33 4.11 4.11 0 013.14-1.19 4.35 4.35 0 012.22.55 3.68 3.68 0 011.48 1.57 5.31 5.31 0 01.51 2.39zm-6 0a3.7 3.7 0 00.43 2 1.53 1.53 0 001.39.66 1.5 1.5 0 001.37-.66 3.68 3.68 0 00.42-2 3.55 3.55 0 00-.43-2 1.78 1.78 0 00-2.75 0 3.52 3.52 0 00-.55 1.97zm14.19 1.79a2.4 2.4 0 01-.94 2 4.59 4.59 0 01-2.79.71 9.35 9.35 0 01-1.63-.13 6.26 6.26 0 01-1.25-.38v-2a8.12 8.12 0 001.49.52 6.17 6.17 0 001.47.21q1.29 0 1.29-.75a.59.59 0 00-.17-.45 2.35 2.35 0 00-.59-.4c-.28-.15-.66-.32-1.13-.52a7.17 7.17 0 01-1.48-.78 2.21 2.21 0 01-.68-.83 2.61 2.61 0 01-.22-1.14 2.07 2.07 0 01.9-1.8 4.36 4.36 0 012.56-.64 7.23 7.23 0 013.07.69l-.72 1.72a11.83 11.83 0 00-1.22-.46 3.86 3.86 0 00-1.17-.18q-1 0-1.05.57a.65.65 0 00.21.63 8.63 8.63 0 001.49.7 6.76 6.76 0 011.5.77 2.38 2.38 0 01.7.83 2.54 2.54 0 01.24 1.08zM45.36 19.52a.67.67 0 01.43.16.64.64 0 01.21.47v18.49a.64.64 0 01-.21.47.62.62 0 01-.43.16h-.06l-15.2-1.6-1.5-.15-.6 1.39a7.77 7.77 0 01-3.24 3.75 11.83 11.83 0 00.81-3.48l.17-2-1.92-.18-5.26-.55a.62.62 0 01-.56-.63V23a.64.64 0 01.56-.63l26.74-2.85h.06m0-2h-.27l-26.74 2.82A2.63 2.63 0 0016 23v12.83a2.63 2.63 0 002.35 2.62l5.26.55a8.11 8.11 0 01-3.28 6.19.48.48 0 00-.16.56.5.5 0 00.45.31h.05c4.35-.5 7.77-2.81 9.22-6.4l15.2 1.6h.27a2.59 2.59 0 001.76-.67 2.62 2.62 0 00.88-2V20.15a2.64 2.64 0 00-2.64-2.63zM24.19 28a1.5 1.5 0 101.5 1.5 1.5 1.5 0 00-1.5-1.5zm7.06 0a1.5 1.5 0 101.5 1.5 1.5 1.5 0 00-1.5-1.5zm7 0a1.5 1.5 0 101.5 1.5A1.5 1.5 0 0038.3 28z" fill="#fff"/></svg>