<svg xmlns="http://www.w3.org/2000/svg" viewBox="0 0 176 68"><path d="M11.62 10.46C5.86 15.5 4.84 28.94 5 35c-.18 7.14.9 21 7.5 25.2a22.9 22.9 0 004.76 2.24c6.21 2.15 66 2.47 70.29 2.56 6 0 66.59 0 75.59-4.5 6.3-4.5 7.5-13.2 7.8-25.5.06-12.24-.9-20.64-7.2-25.44-5-3.84-70.85-4.68-76.19-4.5-5.46-.3-70.19.36-75.95 5.4" fill="#0dacec"/><path d="M66.29 32.11a3.48 3.48 0 01-1.15 2.82 4.94 4.94 0 01-3.28 1h-1V40H58.4V28.55h3.65a4.9 4.9 0 013.16.89 3.28 3.28 0 011.08 2.67zm-5.47 1.81h.8a2.62 2.62 0 001.67-.44 1.53 1.53 0 00.55-1.28 1.58 1.58 0 00-.46-1.26 2.19 2.19 0 00-1.46-.41h-1.1zm13.07 6l-.47-1.19h-.06a3.36 3.36 0 01-1.24 1 3.88 3.88 0 01-1.66.3 2.68 2.68 0 01-2-.72 2.77 2.77 0 01-.72-2 2.29 2.29 0 011-2 5.69 5.69 0 012.94-.73h1.51v-.38a1.19 1.19 0 00-1.36-1.33 6.06 6.06 0 00-2.46.64l-.79-1.61a7.08 7.08 0 013.35-.79 4.15 4.15 0 012.69.76 2.82 2.82 0 01.94 2.33V40zm-.71-4h-.92a3 3 0 00-1.55.37 1.17 1.17 0 00-.5 1.05c0 .67.38 1 1.15 1a1.83 1.83 0 001.33-.47 1.68 1.68 0 00.49-1.27zM83 31.07a4.32 4.32 0 01.8.07l-.18 2.24a2.75 2.75 0 00-.7-.08 2.54 2.54 0 00-1.78.58 2.16 2.16 0 00-.63 1.65V40h-2.43v-8.76h1.81l.35 1.47h.12a3.28 3.28 0 011.09-1.19 2.72 2.72 0 011.55-.45zM87.81 40h-2.38V27.81h2.38zm8.13 0l-.46-1.19h-.07a3.42 3.42 0 01-1.23 1 3.94 3.94 0 01-1.66.3 2.68 2.68 0 01-2-.72 2.73 2.73 0 01-.73-2 2.3 2.3 0 011-2 5.62 5.62 0 012.93-.73h1.52v-.38a1.19 1.19 0 00-1.36-1.33 6.14 6.14 0 00-2.47.64l-.78-1.61a7 7 0 013.37-.92 4.15 4.15 0 012.69.76 2.82 2.82 0 01.94 2.33V40zm-.7-4h-.93a2.92 2.92 0 00-1.54.37 1.18 1.18 0 00-.51 1.05c0 .67.38 1 1.15 1a1.82 1.82 0 001.33-.47 1.69 1.69 0 00.5-1.27zm12.68 4.21c-2.72 0-4.08-1.5-4.08-4.48a4.77 4.77 0 011.11-3.4 4.14 4.14 0 013.18-1.18 6 6 0 012.72.6l-.7 1.84c-.38-.15-.73-.27-1.05-.37a3.27 3.27 0 00-1-.15q-1.86 0-1.86 2.64c0 1.71.62 2.57 1.86 2.57a4 4 0 001.3-.28 4.72 4.72 0 001.18-.57v2a4.25 4.25 0 01-1.17.51 6.85 6.85 0 01-1.49.19zm12.7-4.54a4.68 4.68 0 01-1.13 3.33 4 4 0 01-3.13 1.21 4.46 4.46 0 01-2.22-.55 3.74 3.74 0 01-1.48-1.66 5.34 5.34 0 01-.51-2.4 4.68 4.68 0 011.11-3.33 4.13 4.13 0 013.14-1.19 4.35 4.35 0 012.22.55 3.63 3.63 0 011.48 1.57 5.31 5.31 0 01.52 2.39zm-6 0a3.71 3.71 0 00.42 2 1.54 1.54 0 001.39.66 1.5 1.5 0 001.37-.66 3.68 3.68 0 00.42-2 3.64 3.64 0 00-.42-2 1.55 1.55 0 00-1.39-.65 1.52 1.52 0 00-1.37.65 3.62 3.62 0 00-.46 1.92zM130.73 40h-2.39v-5.1a2.5 2.5 0 00-.33-1.42 1.24 1.24 0 00-1.07-.47 1.61 1.61 0 00-1.45.67 4.19 4.19 0 00-.44 2.21V40h-2.39v-8.76h1.82l.32 1.11h.14a2.43 2.43 0 011.1-1 3.63 3.63 0 011.58-.33 3.07 3.07 0 012.32.83 3.33 3.33 0 01.79 2.38zm14.83 0h-2.38v-5.1a2.5 2.5 0 00-.34-1.42 1.23 1.23 0 00-1.07-.47 1.61 1.61 0 00-1.45.67 4.19 4.19 0 00-.44 2.21V40h-2.38v-8.76h1.82l.32 1.11h.13a2.49 2.49 0 011.1-1 3.64 3.64 0 011.59-.33 3.06 3.06 0 012.31.83 3.29 3.29 0 01.79 2.38zM156 35.59a4.68 4.68 0 01-1.13 3.33 4 4 0 01-3.13 1.21 4.46 4.46 0 01-2.22-.55 3.65 3.65 0 01-1.44-1.58 5.21 5.21 0 01-.52-2.4 4.64 4.64 0 011.12-3.33 4.1 4.1 0 013.14-1.19 4.35 4.35 0 012.22.55 3.6 3.6 0 011.47 1.57 5.18 5.18 0 01.49 2.39zm-6 0a3.61 3.61 0 00.43 2 1.51 1.51 0 001.38.66 1.48 1.48 0 001.37-.66 3.68 3.68 0 00.42-2 3.64 3.64 0 00-.42-2 1.79 1.79 0 00-2.76 0 3.62 3.62 0 00-.42 2zm8-6.59q0-1.17 1.29-1.17c.87 0 1.3.39 1.3 1.17a1.14 1.14 0 01-.32.86 1.36 1.36 0 01-1 .31Q158 30.15 158 29zm2.48 11h-2.38v-8.76h2.38zM45.36 19.52a.67.67 0 01.43.16.64.64 0 01.21.47v18.49a.64.64 0 01-.21.47.62.62 0 01-.43.16h-.06l-15.2-1.6-1.5-.15-.6 1.39a7.77 7.77 0 01-3.24 3.75 11.83 11.83 0 00.81-3.48l.17-2-1.92-.18-5.26-.55a.62.62 0 01-.56-.63V23a.64.64 0 01.56-.63l26.74-2.85h.06m0-2h-.27l-26.74 2.82A2.63 2.63 0 0016 23v12.83a2.63 2.63 0 002.35 2.62l5.26.55a8.11 8.11 0 01-3.28 6.19.48.48 0 00-.16.56.5.5 0 00.45.31h.05c4.35-.5 7.77-2.81 9.22-6.4l15.2 1.6h.27a2.59 2.59 0 001.76-.67 2.62 2.62 0 00.88-2V20.15a2.64 2.64 0 00-2.64-2.63zM24.19 28a1.5 1.5 0 101.5 1.5 1.5 1.5 0 00-1.5-1.5zm7.06 0a1.5 1.5 0 101.5 1.5 1.5 1.5 0 00-1.5-1.5zm7 0a1.5 1.5 0 101.5 1.5A1.5 1.5 0 0038.3 28z" fill="#fff"/></svg>