<svg xmlns="http://www.w3.org/2000/svg" viewBox="0 0 215 68"><path d="M202.76 9.56c-5-3.84-70.85-4.68-76.19-4.5-1.2-.06-5.26-.08-10.92 0h-2.3C111.86 5 105.88 5 97.9 5.1c-5.38-.1-9.21-.1-10.33-.04-5.46-.3-70.19.36-75.95 5.4S4.84 28.94 5 35c-.18 7.14.9 21 7.5 25.2a22.9 22.9 0 004.76 2.24c6.21 2.15 66 2.47 70.29 2.56 1.73 0 8 0 16.31-.11l9.47.11H126.55c6 0 66.59 0 75.59-4.5 6.3-4.5 7.5-13.2 7.8-25.5.06-12.24-.88-20.64-7.18-25.44z" fill="#0dacec"/><path d="M63.25 30.4a2.46 2.46 0 00-2.12 1 4.77 4.77 0 00-.75 2.86q0 3.83 2.87 3.82a9.07 9.07 0 002.91-.6v2a8.06 8.06 0 01-3.14.59 4.81 4.81 0 01-3.81-1.51 6.42 6.42 0 01-1.32-4.34 7.17 7.17 0 01.65-3.13 4.69 4.69 0 011.86-2 5.49 5.49 0 012.85-.72 7.63 7.63 0 013.34.81l-.78 2a12 12 0 00-1.29-.53 3.83 3.83 0 00-1.27-.25zm13.17 5.19a4.68 4.68 0 01-1.12 3.33 4 4 0 01-3.13 1.21 4.46 4.46 0 01-2.17-.55A3.74 3.74 0 0168.47 38a5.34 5.34 0 01-.51-2.4 4.68 4.68 0 011.11-3.33 4.13 4.13 0 013.14-1.19 4.35 4.35 0 012.22.55 3.63 3.63 0 011.48 1.57 5.31 5.31 0 01.51 2.39zm-6 0a3.71 3.71 0 00.42 2 1.54 1.54 0 001.39.66 1.5 1.5 0 001.37-.66 3.68 3.68 0 00.42-2 3.64 3.64 0 00-.42-2 1.55 1.55 0 00-1.42-.59 1.52 1.52 0 00-1.37.65 3.62 3.62 0 00-.42 1.94zM86.54 40h-2.39v-5.1a2.5 2.5 0 00-.33-1.42 1.24 1.24 0 00-1.07-.48 1.61 1.61 0 00-1.45.67 4.09 4.09 0 00-.44 2.21V40h-2.39v-8.76h1.82l.32 1.11h.14a2.46 2.46 0 011.09-1 3.71 3.71 0 011.59-.33 3.07 3.07 0 012.32.83 3.33 3.33 0 01.79 2.38zm4.61 0l-3.33-8.73h2.49l1.69 5a8 8 0 01.33 1.73h.07a6.83 6.83 0 01.35-1.79l1.68-5h2.49L93.59 40zm11 .16A4.49 4.49 0 0198.91 39a4.39 4.39 0 01-1.19-3.29 4.86 4.86 0 011.1-3.4 3.9 3.9 0 013-1.2 3.84 3.84 0 012.89 1.06 4 4 0 011 2.91v1.12h-5.64a2.29 2.29 0 00.61 1.58 2.1 2.1 0 001.57.57 6.57 6.57 0 001.5-.16 7.58 7.58 0 001.46-.52v1.84a5.36 5.36 0 01-1.33.46 7.87 7.87 0 01-1.68.16zm-.33-7.36a1.52 1.52 0 00-1.19.48 2.18 2.18 0 00-.49 1.36h3.34a2 2 0 00-.46-1.36 1.57 1.57 0 00-1.15-.51zm10.79-1.7a4.32 4.32 0 01.8.07l-.18 2.24a2.75 2.75 0 00-.7-.08 2.54 2.54 0 00-1.78.58 2.16 2.16 0 00-.63 1.65V40h-2.39v-8.76h1.81l.35 1.47h.12a3.23 3.23 0 011.1-1.19 2.69 2.69 0 011.55-.45zm8.56 6.31a2.39 2.39 0 01-.93 2 4.59 4.59 0 01-2.79.71 9.35 9.35 0 01-1.63-.13 6.16 6.16 0 01-1.26-.38v-2a8.5 8.5 0 001.5.52 6 6 0 001.47.21q1.29 0 1.29-.75a.63.63 0 00-.17-.45 2.35 2.35 0 00-.59-.4c-.28-.15-.66-.32-1.13-.52a7.17 7.17 0 01-1.48-.78 2.34 2.34 0 01-.69-.83 2.76 2.76 0 01-.21-1.14 2.07 2.07 0 01.9-1.8 4.34 4.34 0 012.56-.64 7.26 7.26 0 013.07.69l-.72 1.72a12.88 12.88 0 00-1.23-.46 3.8 3.8 0 00-1.16-.18q-1 0-1 .57a.65.65 0 00.34.55 8.8 8.8 0 001.48.7 6.32 6.32 0 011.5.77 2.31 2.31 0 01.71.83 2.54 2.54 0 01.22 1.16zm5.9 2.75a4.49 4.49 0 01-3.3-1.17 4.39 4.39 0 01-1.19-3.29 4.86 4.86 0 011.1-3.4 3.9 3.9 0 013-1.2 3.84 3.84 0 012.89 1.06 4 4 0 011 2.91v1.13H125a2.29 2.29 0 00.61 1.58 2.1 2.1 0 001.57.57 6.57 6.57 0 001.5-.16 7.66 7.66 0 001.47-.52v1.84a5.59 5.59 0 01-1.34.46 7.77 7.77 0 01-1.69.16zm-.34-7.36a1.52 1.52 0 00-1.19.48 2.24 2.24 0 00-.49 1.36h3.34a2 2 0 00-.46-1.36 1.55 1.55 0 00-1.15-.51zm13.7 7.36c-2.72 0-4.08-1.5-4.08-4.48a4.77 4.77 0 011.11-3.4 4.14 4.14 0 013.18-1.18 6 6 0 012.72.6l-.71 1.84c-.37-.15-.72-.27-1-.37a3.32 3.32 0 00-1-.15q-1.86 0-1.86 2.64c0 1.71.62 2.57 1.86 2.57A4 4 0 00142 38a4.5 4.5 0 001.17-.57v2A4.07 4.07 0 01142 40a6.85 6.85 0 01-1.52.13zm12.7-4.54a4.68 4.68 0 01-1.13 3.33 4 4 0 01-3.13 1.21 4.46 4.46 0 01-2.22-.55 3.74 3.74 0 01-1.43-1.61 5.34 5.34 0 01-.51-2.4 4.68 4.68 0 011.11-3.33 4.13 4.13 0 013.18-1.2 4.35 4.35 0 012.22.55 3.63 3.63 0 011.48 1.57 5.31 5.31 0 01.48 2.4zm-6 0a3.71 3.71 0 00.42 2 1.54 1.54 0 001.39.66 1.5 1.5 0 001.37-.66 3.68 3.68 0 00.42-2 3.64 3.64 0 00-.42-2 1.54 1.54 0 00-1.39-.65 1.52 1.52 0 00-1.37.65 3.62 3.62 0 00-.41 1.97zM163.29 40h-2.39v-5.1a2.5 2.5 0 00-.33-1.42 1.24 1.24 0 00-1.07-.48 1.61 1.61 0 00-1.45.67 4.19 4.19 0 00-.44 2.21V40h-2.39v-8.76H157l.33 1.11h.13a2.43 2.43 0 011.1-1 3.64 3.64 0 011.59-.33 3.06 3.06 0 012.31.83 3.33 3.33 0 01.79 2.38zm10.47-4.38a4.68 4.68 0 01-1.13 3.33 4 4 0 01-3.13 1.21 4.46 4.46 0 01-2.22-.55A3.74 3.74 0 01165.8 38a5.34 5.34 0 01-.51-2.4 4.64 4.64 0 011.12-3.33 4.1 4.1 0 013.14-1.19 4.38 4.38 0 012.22.55 3.6 3.6 0 011.47 1.57 5.18 5.18 0 01.52 2.39zm-6 0a3.71 3.71 0 00.42 2 1.54 1.54 0 001.39.66 1.49 1.49 0 001.37-.66 3.68 3.68 0 00.42-2 3.64 3.64 0 00-.42-2 1.79 1.79 0 00-2.76 0 3.62 3.62 0 00-.46 1.97zm14.18 1.79a2.39 2.39 0 01-.93 2 4.64 4.64 0 01-2.8.71 9.31 9.31 0 01-1.62-.13 6.16 6.16 0 01-1.26-.38v-2a8 8 0 001.5.52 6 6 0 001.46.21c.87 0 1.3-.25 1.3-.75a.63.63 0 00-.17-.45 2.66 2.66 0 00-.6-.4c-.28-.15-.65-.32-1.12-.52a6.91 6.91 0 01-1.48-.78 2.15 2.15 0 01-.69-.83 2.76 2.76 0 01-.21-1.14 2.07 2.07 0 01.9-1.8 4.34 4.34 0 012.56-.64 7.26 7.26 0 013.07.69l-.72 1.72a12.88 12.88 0 00-1.23-.46 3.85 3.85 0 00-1.16-.18c-.71 0-1.06.19-1.06.57a.68.68 0 00.32.63 9 9 0 001.49.7 6.76 6.76 0 011.5.77 2.27 2.27 0 01.7.83 2.41 2.41 0 01.21 1.08zm5.49 2.75c-2.72 0-4.08-1.5-4.08-4.48a4.77 4.77 0 011.11-3.4 4.14 4.14 0 013.18-1.18 6 6 0 012.72.6l-.71 1.84c-.37-.15-.72-.27-1-.37a3.32 3.32 0 00-1-.15q-1.86 0-1.86 2.64c0 1.71.62 2.57 1.86 2.57a4 4 0 001.27-.19 4.5 4.5 0 001.17-.57v2a4 4 0 01-1.17.51 6.69 6.69 0 01-1.53.15zm12.69-4.54a4.68 4.68 0 01-1.12 3.3 4.06 4.06 0 01-3.13 1.21 4.46 4.46 0 01-2.22-.55 3.68 3.68 0 01-1.52-1.58 5.34 5.34 0 01-.51-2.4 4.68 4.68 0 011.11-3.33 4.11 4.11 0 013.14-1.19 4.35 4.35 0 012.22.55 3.68 3.68 0 011.48 1.57 5.31 5.31 0 01.51 2.39zm-6 0a3.7 3.7 0 00.43 2 1.53 1.53 0 001.39.66 1.5 1.5 0 001.37-.66 3.68 3.68 0 00.42-2 3.55 3.55 0 00-.43-2 1.78 1.78 0 00-2.75 0 3.61 3.61 0 00-.55 1.97zM45.36 19.52a.67.67 0 01.43.16.64.64 0 01.21.47v18.49a.64.64 0 01-.21.47.62.62 0 01-.43.16h-.06l-15.2-1.6-1.5-.15-.6 1.39a7.77 7.77 0 01-3.24 3.75 11.83 11.83 0 00.81-3.48l.17-2-1.92-.18-5.26-.55a.62.62 0 01-.56-.63V23a.64.64 0 01.56-.63l26.74-2.85h.06m0-2h-.27l-26.74 2.82A2.63 2.63 0 0016 23v12.83a2.63 2.63 0 002.35 2.62l5.26.55a8.11 8.11 0 01-3.28 6.19.48.48 0 00-.16.56.5.5 0 00.45.31h.05c4.35-.5 7.77-2.81 9.22-6.4l15.2 1.6h.27a2.59 2.59 0 001.76-.67 2.62 2.62 0 00.88-2V20.15a2.64 2.64 0 00-2.64-2.63zM24.19 28a1.5 1.5 0 101.5 1.5 1.5 1.5 0 00-1.5-1.5zm7.06 0a1.5 1.5 0 101.5 1.5 1.5 1.5 0 00-1.5-1.5zm7 0a1.5 1.5 0 101.5 1.5A1.5 1.5 0 0038.3 28z" fill="#fff"/></svg>