<svg xmlns="http://www.w3.org/2000/svg" viewBox="0 0 195 68"><defs><style>.cls-1{fill:#0dacec}.cls-3{fill:#fff}</style></defs><g id="German"><path id="BG" class="cls-1" d="M11.62 10.46C5.86 15.5 4.84 28.94 5 35c-.18 7.14.9 21 7.5 25.2a22.9 22.9 0 004.76 2.24c6.21 2.15 66 2.47 70.29 2.56 6 0 66.59 0 75.59-4.5 6.3-4.5 7.5-13.2 7.8-25.5.06-12.24-.9-20.64-7.2-25.44-5-3.84-70.85-4.68-76.19-4.5-5.46-.3-70.19.36-75.95 5.4"/><path id="BG-2" data-name="BG" class="cls-1" d="M29.62 10.46C23.86 15.5 22.84 28.94 23 35c-.18 7.14.9 21 7.5 25.2a22.9 22.9 0 004.76 2.24c6.21 2.15 66 2.47 70.29 2.56 6 0 66.59 0 75.59-4.5 6.3-4.5 7.5-13.2 7.8-25.5.06-12.24-.9-20.64-7.2-25.44-5-3.84-70.85-4.68-76.19-4.5-5.46-.3-70.19.36-75.95 5.4"/><text id="German-2" data-name="German" transform="translate(56.96 39.97)" fill="#fff" font-size="16" font-family="NotoSans-Bold,Noto Sans" font-weight="700" letter-spacing=".01em">Chatte mit uns</text><path id="Icon_1" data-name="Icon 1" class="cls-3" d="M45.36 19.52a.67.67 0 01.43.16.64.64 0 01.21.47v18.49a.64.64 0 01-.21.47.62.62 0 01-.43.16h-.06l-15.2-1.6-1.5-.15-.6 1.39a7.77 7.77 0 01-3.24 3.75 11.83 11.83 0 00.81-3.48l.17-2-1.92-.18-5.26-.55a.62.62 0 01-.56-.63V23a.64.64 0 01.56-.63l26.74-2.85h.06m0-2h-.27l-26.74 2.82A2.63 2.63 0 0016 23v12.83a2.63 2.63 0 002.35 2.62l5.26.55a8.11 8.11 0 01-3.28 6.19.48.48 0 00-.16.56.5.5 0 00.45.31h.05c4.35-.5 7.77-2.81 9.22-6.4l15.2 1.6h.27a2.59 2.59 0 001.76-.67 2.62 2.62 0 00.88-2V20.15a2.64 2.64 0 00-2.64-2.63zM24.19 28a1.5 1.5 0 101.5 1.5 1.5 1.5 0 00-1.5-1.5zm7.06 0a1.5 1.5 0 101.5 1.5 1.5 1.5 0 00-1.5-1.5zm7 0a1.5 1.5 0 101.5 1.5A1.5 1.5 0 0038.3 28z"/><path class="cls-1" d="M181.76 9.56c-5-3.84-70.85-4.68-76.19-4.5C104.28 5 99.7 5 93.38 5.05h-5.81c-5.46-.3-70.19.36-75.95 5.4S4.84 28.94 5 35c-.18 7.14.9 21 7.5 25.2a22.9 22.9 0 004.76 2.24c6.21 2.15 66 2.47 70.29 2.56 1.45 0 6.13 0 12.51-.06l5.49.06c6 0 66.59 0 75.59-4.5 6.3-4.5 7.5-13.2 7.8-25.5.06-12.24-.88-20.64-7.18-25.44z"/><path class="cls-3" d="M63.25 30.4a2.46 2.46 0 00-2.12 1 4.77 4.77 0 00-.75 2.86q0 3.83 2.87 3.82a9.17 9.17 0 002.92-.6v2a8.15 8.15 0 01-3.15.59 4.81 4.81 0 01-3.81-1.51 6.42 6.42 0 01-1.32-4.34 7.17 7.17 0 01.65-3.13 4.69 4.69 0 011.86-2 5.49 5.49 0 012.85-.72 7.63 7.63 0 013.34.81l-.78 2a12 12 0 00-1.29-.53 3.83 3.83 0 00-1.27-.25zm13.3 9.6h-2.38v-5.1q0-1.89-1.41-1.89a1.59 1.59 0 00-1.44.68 4.11 4.11 0 00-.45 2.2V40h-2.38V27.81h2.38v2.48c0 .19 0 .65-.05 1.36l-.06.7h.13a2.76 2.76 0 012.53-1.28 3.1 3.1 0 012.33.83 3.29 3.29 0 01.8 2.38zm8.08 0l-.46-1.19h-.06a3.44 3.44 0 01-1.24 1 3.94 3.94 0 01-1.66.3 2.68 2.68 0 01-2-.72 2.77 2.77 0 01-.73-2 2.3 2.3 0 011-2 5.65 5.65 0 012.93-.73h1.52v-.38a1.19 1.19 0 00-1.36-1.33 6.06 6.06 0 00-2.46.64l-.79-1.61a7 7 0 013.34-.79 4.19 4.19 0 012.7.76 2.85 2.85 0 01.93 2.33V40zm-.7-4H83a2.92 2.92 0 00-1.54.37 1.18 1.18 0 00-.46 1.01c0 .67.39 1 1.16 1a1.81 1.81 0 001.32-.47 1.69 1.69 0 00.5-1.27zm8.58 2.31A5.3 5.3 0 0094 38v1.77a5.49 5.49 0 01-2.19.4 2.64 2.64 0 01-2.08-.73 3.1 3.1 0 01-.66-2.16V33h-1.13v-1l1.32-.8.68-1.84h1.53v1.86h2.44V33h-2.44v4.21a.92.92 0 00.28.75 1.14 1.14 0 00.76.27zm7 0A5.19 5.19 0 00101 38v1.77a5.42 5.42 0 01-2.19.4 2.66 2.66 0 01-2.08-.73 3.15 3.15 0 01-.65-2.16V33H95v-1l1.31-.8.69-1.82h1.52v1.86h2.45V33h-2.48v4.21a.93.93 0 00.29.75 1.13 1.13 0 00.75.27zm7.3 1.9a4.51 4.51 0 01-3.3-1.17 4.39 4.39 0 01-1.18-3.29 4.86 4.86 0 011.09-3.4 3.93 3.93 0 013-1.2 3.83 3.83 0 012.88 1.06 4 4 0 011 2.91v1.08h-5.63a2.33 2.33 0 00.6 1.58 2.13 2.13 0 001.58.57 6.48 6.48 0 001.49-.16 7.43 7.43 0 001.47-.52v1.84a5.51 5.51 0 01-1.33.46 7.93 7.93 0 01-1.65.16zm-.33-7.36a1.5 1.5 0 00-1.19.48 2.18 2.18 0 00-.49 1.36h3.34a2 2 0 00-.46-1.36 1.57 1.57 0 00-1.18-.56zm18 7.2h-2.39v-5.1a2.6 2.6 0 00-.31-1.42 1.13 1.13 0 00-1-.47 1.44 1.44 0 00-1.33.67 4.5 4.5 0 00-.41 2.21V40h-2.38v-8.76h1.82l.32 1.11h.13a2.39 2.39 0 011-.94 3.37 3.37 0 011.52-.34 2.76 2.76 0 012.66 1.28h.21a2.36 2.36 0 011-.94 3.38 3.38 0 011.54-.34 3.09 3.09 0 012.25.76 3.36 3.36 0 01.76 2.45V40h-2.39v-5.1a2.6 2.6 0 00-.31-1.42 1.14 1.14 0 00-1-.47 1.51 1.51 0 00-1.31.62 3.56 3.56 0 00-.43 2zm7.87-11q0-1.17 1.29-1.17c.87 0 1.3.39 1.3 1.17a1.14 1.14 0 01-.32.86 1.36 1.36 0 01-1 .31q-1.28-.07-1.28-1.22zm2.48 11h-2.38v-8.81h2.38zm6.26-1.74a5.19 5.19 0 001.5-.27v1.77a5.42 5.42 0 01-2.19.4 2.66 2.66 0 01-2.08-.73 3.15 3.15 0 01-.65-2.16V33h-1.14v-1l1.31-.8.69-1.84H140v1.86h2.45V33H140v4.21a.93.93 0 00.29.75 1.13 1.13 0 00.79.27zM154.85 40l-.32-1.12h-.13a2.43 2.43 0 01-1.08.94 3.58 3.58 0 01-1.6.34 3 3 0 01-2.32-.83 3.32 3.32 0 01-.78-2.37v-5.72H151v5.1a2.5 2.5 0 00.33 1.42 1.25 1.25 0 001.07.47 1.61 1.61 0 001.45-.67 4.09 4.09 0 00.44-2.21v-4.11h2.39V40zm12.47 0h-2.38v-5.1a2.42 2.42 0 00-.34-1.42 1.23 1.23 0 00-1.07-.47 1.58 1.58 0 00-1.44.67 4.08 4.08 0 00-.45 2.21V40h-2.38v-8.76h1.82l.32 1.11h.13a2.49 2.49 0 011.1-1 3.64 3.64 0 011.59-.33 3.06 3.06 0 012.31.83 3.29 3.29 0 01.79 2.38zm8.68-2.62a2.37 2.37 0 01-.94 2 4.59 4.59 0 01-2.79.71 9.14 9.14 0 01-1.67-.09 6.16 6.16 0 01-1.26-.38v-2a8.12 8.12 0 001.49.52 6.17 6.17 0 001.47.21c.86 0 1.3-.25 1.3-.75a.6.6 0 00-.18-.45 2.35 2.35 0 00-.59-.4c-.28-.15-.66-.32-1.12-.52a7 7 0 01-1.49-.78 2.21 2.21 0 01-.68-.83 2.61 2.61 0 01-.22-1.14 2.07 2.07 0 01.9-1.8 4.38 4.38 0 012.56-.64 7.23 7.23 0 013.07.69l-.72 1.72a11.83 11.83 0 00-1.22-.46 3.86 3.86 0 00-1.17-.18q-1.05 0-1.05.57a.65.65 0 00.31.62 9 9 0 001.49.7 6.76 6.76 0 011.5.77 2.38 2.38 0 01.7.83 2.54 2.54 0 01.31 1.08zM45.36 19.52a.67.67 0 01.43.16.64.64 0 01.21.47v18.49a.64.64 0 01-.21.47.62.62 0 01-.43.16h-.06l-15.2-1.6-1.5-.15-.6 1.39a7.77 7.77 0 01-3.24 3.75 11.83 11.83 0 00.81-3.48l.17-2-1.92-.18-5.26-.55a.62.62 0 01-.56-.63V23a.64.64 0 01.56-.63l26.74-2.85h.06m0-2h-.27l-26.74 2.82A2.63 2.63 0 0016 23v12.83a2.63 2.63 0 002.35 2.62l5.26.55a8.11 8.11 0 01-3.28 6.19.48.48 0 00-.16.56.5.5 0 00.45.31h.05c4.35-.5 7.77-2.81 9.22-6.4l15.2 1.6h.27a2.59 2.59 0 001.76-.67 2.62 2.62 0 00.88-2V20.15a2.64 2.64 0 00-2.64-2.63zM24.19 28a1.5 1.5 0 101.5 1.5 1.5 1.5 0 00-1.5-1.5zm7.06 0a1.5 1.5 0 101.5 1.5 1.5 1.5 0 00-1.5-1.5zm7 0a1.5 1.5 0 101.5 1.5A1.5 1.5 0 0038.3 28z"/></g></svg>