<svg xmlns="http://www.w3.org/2000/svg" viewBox="0 0 62.01 44.62"><defs><style>.\30 3d5d063-7cc8-42b6-a5cb-a0284aeb3b74{fill:#fff;}</style></defs><title>Volume</title><g id="950e2897-01f8-4533-95f0-04f1461ebdf5" data-name="Layer 2"><g id="6be19217-28b5-470c-a2cf-25de6a6bc129" data-name="Volume"><path id="4a18f0db-f6ac-4442-aafe-38cf0634073d" data-name="Volume" class="03d5d063-7cc8-42b6-a5cb-a0284aeb3b74" d="M13,12.62,29.11,0V44.09L13,31.47H0V12.62ZM52.77,0,49.19,3.58a26.46,26.46,0,0,1,0,37.46l3.58,3.58A31.55,31.55,0,0,0,52.77,0ZM47.5,22.31a17,17,0,0,1-5,12l3.58,3.58a22.11,22.11,0,0,0,0-31.24L42.5,10.27A17,17,0,0,1,47.5,22.31Zm-8.12-8.92L35.81,17a7.56,7.56,0,0,1,0,10.7l3.57,3.57a12.6,12.6,0,0,0,0-17.84Z"/></g></g></svg>