<svg xmlns="http://www.w3.org/2000/svg" width="58" height="90" viewBox="0 0 58 90"><g fill="#00AEEF"><path d="M43.589 37.4l4.844-8.717v-28.683h-40.167v28.684l5.837 8.906c-8.056 4.994-13.425 13.912-13.425 24.088 0 15.64 12.68 28.322 28.322 28.322 15.643 0 28.322-12.682 28.322-28.322 0-10.307-5.505-19.323-13.733-24.278zm-5.797-29.535v25.945c-2.417-.789-4.975-1.264-7.628-1.369v-24.576h7.628zm-18.887 0h7.628v24.66c-2.666.23-5.225.828-7.628 1.746v-26.406zm10.095 77.776c-13.214 0-23.964-10.748-23.964-23.963s10.75-23.963 23.964-23.963 23.964 10.748 23.964 23.963-10.75 23.963-23.964 23.963zM33.371 55.66l-4.371-13.453-4.372 13.453h-14.145l11.444 8.315-4.371 13.453 11.444-8.315 11.444 8.315-4.371-13.453 11.444-8.315z"/></g></svg>