<svg xmlns="http://www.w3.org/2000/svg" width="135.359" height="90" viewBox="0 0 135.359 90"><path fill="#00AEEF" d="M15.53 12.362l-9.224-4.289c-1.669-.771-3.65-.049-4.435 1.619-.771 1.677-.048 3.658 1.623 4.441l9.224 4.291 11.322 31.006 22.5-48.391-31.01 11.323zm7.33 13.084c-1.617-.754-2.686-2.209-3.016-3.82 1.529.403 3.187-.26 3.888-1.77.69-1.494.149-3.179-1.165-4.086 1.452-.797 3.251-.92 4.865-.176 2.728 1.258 3.909 4.498 2.636 7.219-1.258 2.725-4.49 3.895-7.208 2.633zm110.534 17.919c-.604-1.653-1.812-2.966-3.412-3.704l-80.344-37.353-22.636 48.682c8.556 3.972 80.35 37.348 80.354 37.357 3.274 1.529 7.212.094 8.737-3.19l17.079-36.761c.753-1.585.826-3.375.222-5.031z"/><g fill="#fff"><path d="M45.141 33.923c-1.367 2.893.356 5.083 2.917 6.296 1.674.791 4.462 1.515 5.513-.708 1.109-2.347-1.962-4.288-4.759-6.653-2.827-2.38-5.495-5.168-3.565-9.252 2.105-4.449 7.32-4.594 11.25-2.736 4.539 2.146 7.778 6.098 5.398 11.129l-4.63-2.19c1.087-2.692-.456-4.246-2.742-5.324-1.523-.722-3.593-.914-4.457.917-.793 1.674.145 2.377 4.935 6.359 1.395 1.144 5.799 4.454 3.466 9.392-1.888 3.99-6.441 5.494-12.353 2.701-4.814-2.278-8.202-6.788-5.605-12.12l4.632 2.189zM74.482 30.01l4.908 2.319-2.155 25.604-4.962-2.351.643-5.619-8.135-3.849-3.996 4.038-4.847-2.294 18.544-17.848zm-6.765 13.127l5.637 2.666 1.032-9.28-.06-.031-6.609 6.645zM87.857 62.951l-5.396-2.55 3.217-25.101 4.938 2.333-2.391 17.587.065.031 12.138-12.98 4.937 2.335-17.508 18.345zM107.232 45.491l16.271 7.692-1.902 4.024-11.485-5.435-2.206 4.666 10.543 4.983-1.756 3.716-10.545-4.983-2.519 5.333 11.729 5.546-1.899 4.023-16.517-7.811 10.286-21.754z"/></g></svg>